<svg width="24" height="24" viewBox="0 0 24 24" fill="none" xmlns="http://www.w3.org/2000/svg">
<path d="M12 6V3M9 3H15M12 10V14H15.46C15.4752 13.8337 15.4752 13.6663 15.46 13.5C15.4601 12.5786 15.0968 11.6944 14.4491 11.0392C13.8013 10.3839 12.9213 10.0105 12 10Z" stroke="url(#paint0_linear_211_4066)" stroke-width="2" stroke-linecap="round" stroke-linejoin="round"/>
<path d="M12 21C16.1421 21 19.5 17.6421 19.5 13.5C19.5 9.35786 16.1421 6 12 6C7.85786 6 4.5 9.35786 4.5 13.5C4.5 17.6421 7.85786 21 12 21Z" stroke="url(#paint1_linear_211_4066)" stroke-width="2" stroke-linecap="round" stroke-linejoin="round"/>
<defs>
<linearGradient id="paint0_linear_211_4066" x1="12.2357" y1="3" x2="12.2357" y2="14" gradientUnits="userSpaceOnUse">
<stop stop-color="#FE6A2D"/>
<stop offset="1" stop-color="#FC4738"/>
</linearGradient>
<linearGradient id="paint1_linear_211_4066" x1="12" y1="6" x2="12" y2="21" gradientUnits="userSpaceOnUse">
<stop stop-color="#FE6A2D"/>
<stop offset="1" stop-color="#FC4738"/>
</linearGradient>
</defs>
</svg>
