<svg width="34" height="34" viewBox="0 0 34 34" fill="none" xmlns="http://www.w3.org/2000/svg">
<path d="M22.6641 11.3333L29.7474 4.25" stroke="url(#paint0_linear_350_5440)" stroke-width="3.05871" stroke-linecap="round" stroke-linejoin="round"/>
<path d="M29.7474 11.3333H22.6641V4.25" stroke="url(#paint1_linear_350_5440)" stroke-width="3.05871" stroke-linecap="round" stroke-linejoin="round"/>
<path d="M29.7457 21.25V26.8175C29.75 27.2269 29.6656 27.6323 29.4982 28.0058C29.3309 28.3794 29.0846 28.7123 28.7763 28.9815C28.468 29.2508 28.105 29.4501 27.7123 29.5656C27.3196 29.6812 26.9065 29.7103 26.5015 29.6509C20.8872 28.9297 15.6724 26.3609 11.6789 22.3494C7.68534 18.3379 5.14003 13.1117 4.44401 7.49421C4.38483 7.09039 4.41358 6.67855 4.52831 6.28687C4.64304 5.89519 4.84103 5.53292 5.10874 5.22485C5.37645 4.91679 5.70756 4.67019 6.0794 4.50194C6.45125 4.3337 6.85505 4.24777 7.26318 4.25004H12.7457C13.0959 4.24792 13.4345 4.3756 13.6961 4.60844C13.9577 4.84128 14.1238 5.16278 14.1623 5.51088C14.3029 7.36752 14.7831 9.1826 15.579 10.8659C15.7155 11.1847 15.7303 11.5424 15.6206 11.8714C15.511 12.2004 15.2845 12.4777 14.984 12.6509L13.7657 13.345C13.5901 13.4416 13.4369 13.5744 13.3164 13.7345C13.1959 13.8947 13.1108 14.0785 13.0666 14.274C13.0224 14.4695 13.0202 14.6722 13.0601 14.8686C13.1 15.065 13.1812 15.2507 13.2982 15.4134C14.6997 17.4664 16.4727 19.2393 18.5257 20.6409C18.6884 20.7579 18.8741 20.839 19.0705 20.8789C19.2669 20.9189 19.4695 20.9167 19.665 20.8725C19.8605 20.8283 20.0444 20.7431 20.2045 20.6226C20.3647 20.5021 20.4974 20.349 20.594 20.1734L21.2882 18.955C21.4717 18.6507 21.7629 18.4263 22.104 18.3266C22.4451 18.2269 22.8113 18.2591 23.1298 18.4167C24.8131 19.2126 26.6282 19.6928 28.4848 19.8334C28.8329 19.8719 29.1544 20.038 29.3873 20.2996C29.6201 20.5612 29.7478 20.8998 29.7457 21.25Z" stroke="url(#paint2_linear_350_5440)" stroke-width="3.05871" stroke-linecap="round" stroke-linejoin="round"/>
<defs>
<linearGradient id="paint0_linear_350_5440" x1="26.2057" y1="4.25" x2="26.2057" y2="11.3333" gradientUnits="userSpaceOnUse">
<stop stop-color="#FE6A2D"/>
<stop offset="1" stop-color="#FC4738"/>
</linearGradient>
<linearGradient id="paint1_linear_350_5440" x1="26.2057" y1="4.25" x2="26.2057" y2="11.3333" gradientUnits="userSpaceOnUse">
<stop stop-color="#FE6A2D"/>
<stop offset="1" stop-color="#FC4738"/>
</linearGradient>
<linearGradient id="paint2_linear_350_5440" x1="17.0799" y1="4.25" x2="17.0799" y2="29.6808" gradientUnits="userSpaceOnUse">
<stop stop-color="#FE6A2D"/>
<stop offset="1" stop-color="#FC4738"/>
</linearGradient>
</defs>
</svg>
