<svg width="34" height="34" viewBox="0 0 34 34" fill="none" xmlns="http://www.w3.org/2000/svg">
	<path fill-rule="evenodd" clip-rule="evenodd"
		d="M13.8125 29.0416C13.8125 28.0636 14.6053 27.2708 15.5833 27.2708H15.725C16.703 27.2708 17.4958 28.0636 17.4958 29.0416C17.4958 30.0197 16.703 30.8125 15.725 30.8125H15.5833C14.6053 30.8125 13.8125 30.0197 13.8125 29.0416ZM22.3125 29.0416C22.3125 28.0636 23.1053 27.2708 24.0833 27.2708H24.225C25.203 27.2708 25.9958 28.0636 25.9958 29.0416C25.9958 30.0197 25.203 30.8125 24.225 30.8125H24.0833C23.1053 30.8125 22.3125 30.0197 22.3125 29.0416Z"
		fill="#08090B" />
	<path fill-rule="evenodd" clip-rule="evenodd"
		d="M26.5004 6.08159C27.0537 6.63483 27.0537 7.53181 26.5004 8.08506L20.8338 13.7517C20.2805 14.305 19.3835 14.305 18.8303 13.7517L15.997 10.9184C15.4437 10.3651 15.4437 9.46816 15.997 8.91492C16.5502 8.36168 17.4472 8.36168 18.0004 8.91492L19.832 10.7465L24.497 6.08159C25.0502 5.52835 25.9472 5.52835 26.5004 6.08159Z"
		fill="#08090B" />
	<path fill-rule="evenodd" clip-rule="evenodd"
		d="M7.35102 2.83331C7.99891 2.82211 8.63131 3.03335 9.14257 3.43213C9.65835 3.83444 10.019 4.4028 10.1634 5.04073C10.1636 5.04173 10.1639 5.04273 10.1641 5.04373L13.8758 21.2504C13.8831 21.2502 13.8905 21.2501 13.8978 21.25C13.902 21.25 13.9062 21.25 13.9104 21.25H25.8387C25.8525 21.25 25.8662 21.2502 25.88 21.2506L28.3721 10.9987C28.5569 10.2384 29.3231 9.77192 30.0833 9.95673C30.8436 10.1415 31.3101 10.9077 31.1253 11.6679L28.6319 21.9246L28.6308 21.9294C28.4756 22.558 28.1099 23.1146 27.5944 23.5064C27.0853 23.8933 26.4604 24.0965 25.8216 24.0833H13.9247C13.2768 24.0945 12.6444 23.8833 12.1332 23.4845C11.6174 23.0822 11.2567 22.5138 11.1123 21.8759C11.1121 21.8749 11.1119 21.8739 11.1116 21.8729L7.39997 5.66622C7.38843 5.6665 7.3769 5.66664 7.36536 5.66664H4.2487C3.46629 5.66664 2.83203 5.03238 2.83203 4.24998C2.83203 3.46757 3.46629 2.83331 4.2487 2.83331H7.35102Z"
		fill="#08090B" />
</svg>