<svg width="30" height="30" viewBox="0 0 30 30" fill="none" xmlns="http://www.w3.org/2000/svg">
<path d="M10 15H15V8.75" stroke="url(#paint0_linear_350_5799)" stroke-width="2" stroke-linecap="round" stroke-linejoin="round"/>
<path d="M15 3.75C17.225 3.75 19.4001 4.4098 21.2502 5.64597C23.1002 6.88213 24.5422 8.63914 25.3936 10.6948C26.2451 12.7505 26.4679 15.0125 26.0338 17.1948C25.5998 19.3771 24.5283 21.3816 22.955 22.955C21.3816 24.5283 19.3771 25.5998 17.1948 26.0338C15.0125 26.4679 12.7505 26.2451 10.6948 25.3936C8.63914 24.5422 6.88213 23.1002 5.64597 21.2502C4.4098 19.4001 3.75 17.225 3.75 15" stroke="url(#paint1_linear_350_5799)" stroke-width="2" stroke-linecap="round" stroke-linejoin="round"/>
<defs>
<linearGradient id="paint0_linear_350_5799" x1="12.5" y1="8.75" x2="12.5" y2="15" gradientUnits="userSpaceOnUse">
<stop stop-color="#FE6A2D"/>
<stop offset="1" stop-color="#FC4738"/>
</linearGradient>
<linearGradient id="paint1_linear_350_5799" x1="15" y1="3.75" x2="15" y2="26.25" gradientUnits="userSpaceOnUse">
<stop stop-color="#FE6A2D"/>
<stop offset="1" stop-color="#FC4738"/>
</linearGradient>
</defs>
</svg>
