<svg width="27" height="30" viewBox="0 0 27 30" fill="none" xmlns="http://www.w3.org/2000/svg">
<path fill-rule="evenodd" clip-rule="evenodd" d="M13.2353 0C14.0475 0 14.7059 0.671573 14.7059 1.5V13.5H16.3824C16.465 13.5 16.5475 13.5071 16.629 13.5212C17.1006 13.6031 17.5456 13.801 17.9252 14.0979C18.3049 14.3948 18.6078 14.7817 18.8078 15.225C19.0077 15.6684 19.0986 16.1548 19.0726 16.642C19.0465 17.1293 18.9044 17.6027 18.6584 18.0212C18.643 18.0475 18.6268 18.0732 18.6098 18.0984L15.4729 22.7634C15.2319 23.1379 14.9041 23.4463 14.5184 23.6612C14.1249 23.8805 13.6837 23.9954 13.2353 23.9954C12.7869 23.9954 12.3457 23.8805 11.9521 23.6612C11.5665 23.4463 11.2387 23.1379 10.9977 22.7633L7.8608 18.0984C7.84383 18.0732 7.82763 18.0475 7.81222 18.0212C7.56623 17.6027 7.42406 17.1293 7.39803 16.642C7.37199 16.1548 7.46288 15.6684 7.66281 15.225C7.86275 14.7817 8.16569 14.3948 8.54536 14.0979C8.92503 13.801 9.36998 13.6031 9.84163 13.5212C9.9231 13.5071 10.0056 13.5 10.0882 13.5H11.7647V1.5C11.7647 0.671573 12.4231 0 13.2353 0ZM10.3525 16.5L13.2353 20.7871L16.1181 16.5H10.3525ZM0.861451 8.37868C1.41303 7.81607 2.16113 7.5 2.94118 7.5H7.35294C8.16512 7.5 8.82353 8.17157 8.82353 9C8.82353 9.82843 8.16512 10.5 7.35294 10.5H2.94118L2.94118 27H23.5294V10.5H19.1176C18.3055 10.5 17.6471 9.82843 17.6471 9C17.6471 8.17157 18.3055 7.5 19.1176 7.5H23.5294C24.3095 7.5 25.0576 7.81607 25.6091 8.37868C26.1607 8.94129 26.4706 9.70435 26.4706 10.5V27C26.4706 27.7956 26.1607 28.5587 25.6091 29.1213C25.0576 29.6839 24.3095 30 23.5294 30H2.94118C2.16113 30 1.41303 29.6839 0.861451 29.1213C0.309873 28.5587 0 27.7956 0 27V10.5C0 9.70435 0.309874 8.94129 0.861451 8.37868Z" fill="url(#paint0_linear_592_13119)"/>
<defs>
<linearGradient id="paint0_linear_592_13119" x1="13.2353" y1="0" x2="13.2353" y2="30" gradientUnits="userSpaceOnUse">
<stop stop-color="#FE6A2D"/>
<stop offset="1" stop-color="#FC4738"/>
</linearGradient>
</defs>
</svg>
