<svg width="12" height="12" viewBox="0 0 12 12" fill="none" xmlns="http://www.w3.org/2000/svg">
<g id="down-arrow">
<path id="Vector" d="M5.63944 2.68856C5.67958 2.63027 5.73328 2.58261 5.79593 2.54968C5.85858 2.51675 5.92829 2.49955 5.99906 2.49955C6.06984 2.49955 6.13955 2.51675 6.2022 2.54968C6.26485 2.58261 6.31855 2.63027 6.35869 2.68856L10.2962 8.37606C10.3418 8.44166 10.3685 8.5185 10.3735 8.59822C10.3784 8.67795 10.3615 8.75751 10.3244 8.82827C10.2873 8.89902 10.2316 8.95827 10.1632 8.99956C10.0948 9.04086 10.0164 9.06263 9.93657 9.0625H2.06156C1.98187 9.06217 1.90377 9.04012 1.83567 8.99873C1.76757 8.95733 1.71205 8.89816 1.67506 8.82757C1.63808 8.75697 1.62104 8.67763 1.62577 8.59808C1.63051 8.51853 1.65684 8.44177 1.70194 8.37606L5.63944 2.68856Z" fill="#6D6D6D"/>
</g>
</svg>
