<svg width="18" height="18" viewBox="0 0 18 18" fill="none" xmlns="http://www.w3.org/2000/svg">
<g id="vuesax/linear/filter-add">
<g id="filter-add">
<path id="Vector" d="M16.2227 11.0625C16.2227 11.73 16.0352 12.36 15.7052 12.9C15.0902 13.935 13.9577 14.625 12.6602 14.625C11.3627 14.625 10.2302 13.9275 9.61516 12.9C9.28516 12.3675 9.09766 11.73 9.09766 11.0625C9.09766 9.0975 10.6952 7.5 12.6602 7.5C14.6252 7.5 16.2227 9.0975 16.2227 11.0625Z" stroke="url(#paint0_linear_1103_5337)" stroke-width="1.5" stroke-miterlimit="10" stroke-linecap="round" stroke-linejoin="round"/>
<g id="Group">
<path id="Vector_2" d="M13.9945 11.0474H11.332" stroke="url(#paint1_linear_1103_5337)" stroke-width="1.5" stroke-miterlimit="10" stroke-linecap="round" stroke-linejoin="round"/>
<path id="Vector_3" d="M12.6602 9.75V12.4125" stroke="url(#paint2_linear_1103_5337)" stroke-width="1.5" stroke-miterlimit="10" stroke-linecap="round" stroke-linejoin="round"/>
</g>
<g id="Group_2">
<path id="Vector_4" d="M15.5194 3.01501V4.67999C15.5194 5.28749 15.1369 6.04501 14.7619 6.42751L13.4419 7.59C13.1944 7.53 12.9319 7.5 12.6619 7.5C10.6969 7.5 9.09937 9.0975 9.09937 11.0625C9.09937 11.73 9.28687 12.36 9.61687 12.9C9.89437 13.365 10.2769 13.7625 10.7419 14.0475V14.3025C10.7419 14.76 10.4419 15.3675 10.0594 15.5925L9.00187 16.275C8.01937 16.8825 6.65437 16.2 6.65437 14.985V10.9725C6.65437 10.44 6.34688 9.75751 6.04688 9.38251L3.16687 6.35248C2.79187 5.96998 2.48438 5.28751 2.48438 4.83751V3.09C2.48438 2.1825 3.16688 1.5 3.99938 1.5H14.0044C14.8369 1.5 15.5194 2.18251 15.5194 3.01501Z" stroke="url(#paint3_linear_1103_5337)" stroke-width="1.5" stroke-miterlimit="10" stroke-linecap="round" stroke-linejoin="round"/>
</g>
</g>
</g>
<defs>
<linearGradient id="paint0_linear_1103_5337" x1="12.6602" y1="7.5" x2="12.6602" y2="14.625" gradientUnits="userSpaceOnUse">
<stop stop-color="#FE6A2D"/>
<stop offset="1" stop-color="#FC4738"/>
</linearGradient>
<linearGradient id="paint1_linear_1103_5337" x1="12.6633" y1="11.0474" x2="12.6633" y2="12.0474" gradientUnits="userSpaceOnUse">
<stop stop-color="#FE6A2D"/>
<stop offset="1" stop-color="#FC4738"/>
</linearGradient>
<linearGradient id="paint2_linear_1103_5337" x1="13.1602" y1="9.75" x2="13.1602" y2="12.4125" gradientUnits="userSpaceOnUse">
<stop stop-color="#FE6A2D"/>
<stop offset="1" stop-color="#FC4738"/>
</linearGradient>
<linearGradient id="paint3_linear_1103_5337" x1="9.00188" y1="1.5" x2="9.00188" y2="16.5007" gradientUnits="userSpaceOnUse">
<stop stop-color="#FE6A2D"/>
<stop offset="1" stop-color="#FC4738"/>
</linearGradient>
</defs>
</svg>
