<svg width="24" height="24" viewBox="0 0 24 24" fill="none" xmlns="http://www.w3.org/2000/svg">
<path d="M12.55 14.63L21 9V20C21 20.2652 20.8946 20.5196 20.7071 20.7071C20.5196 20.8946 20.2652 21 20 21H4C3.73478 21 3.48043 20.8946 3.29289 20.7071C3.10536 20.5196 3 20.2652 3 20V9L11.45 14.63C11.6133 14.7375 11.8045 14.7948 12 14.7948C12.1955 14.7948 12.3867 14.7375 12.55 14.63Z" stroke="#525354" stroke-width="2" stroke-linecap="round" stroke-linejoin="round"/>
<path d="M14.4 13.4L17 16M7 16L9.6 13.4M12.55 3.17002C12.3867 3.0625 12.1955 3.00519 12 3.00519C11.8045 3.00519 11.6133 3.0625 11.45 3.17002L3 9.00002L11.45 14.63C11.6133 14.7376 11.8045 14.7949 12 14.7949C12.1955 14.7949 12.3867 14.7376 12.55 14.63L21 9.00002L12.55 3.17002Z" stroke="#525354" stroke-width="2" stroke-linecap="round" stroke-linejoin="round"/>
</svg>
