<svg width="24" height="25" viewBox="0 0 24 25" fill="none" xmlns="http://www.w3.org/2000/svg">
<path d="M20.9983 15.2V19.13C21.0014 19.419 20.9418 19.7051 20.8237 19.9688C20.7055 20.2325 20.5317 20.4675 20.3141 20.6576C20.0964 20.8476 19.8402 20.9883 19.563 21.0699C19.2858 21.1514 18.9942 21.172 18.7083 21.13C14.7453 20.621 11.0643 18.8077 8.2453 15.9761C5.42632 13.1444 3.62963 9.45533 3.13833 5.49004C3.09655 5.20499 3.11685 4.91428 3.19783 4.6378C3.27882 4.36132 3.41858 4.1056 3.60755 3.88814C3.79652 3.67068 4.03024 3.49662 4.29272 3.37785C4.5552 3.25909 4.84024 3.19844 5.12833 3.20004H8.99833C9.24554 3.19854 9.48455 3.28867 9.66922 3.45303C9.85389 3.61739 9.97114 3.84432 9.99833 4.09004C10.0976 5.40062 10.4365 6.68185 10.9983 7.87004C11.0947 8.09507 11.1051 8.34762 11.0277 8.57984C10.9503 8.81206 10.7904 9.00782 10.5783 9.13004L9.71833 9.62004C9.59437 9.68822 9.48628 9.78192 9.40122 9.89496C9.31615 10.008 9.25604 10.1378 9.22485 10.2758C9.19366 10.4138 9.1921 10.5568 9.22028 10.6955C9.24846 10.8341 9.30574 10.9652 9.38833 11.08C10.3777 12.5292 11.6291 13.7807 13.0783 14.77C13.1932 14.8526 13.3243 14.9099 13.4629 14.9381C13.6015 14.9663 13.7446 14.9647 13.8826 14.9335C14.0206 14.9023 14.1504 14.8422 14.2634 14.7572C14.3764 14.6721 14.4702 14.564 14.5383 14.44L15.0283 13.58C15.1578 13.3652 15.3634 13.2068 15.6042 13.1365C15.845 13.0661 16.1035 13.0888 16.3283 13.2C17.5165 13.7619 18.7978 14.1008 20.1083 14.2C20.354 14.2272 20.581 14.3445 20.7453 14.5292C20.9097 14.7138 20.9998 14.9528 20.9983 15.2Z" stroke="#525354" stroke-width="2" stroke-linecap="round" stroke-linejoin="round"/>
</svg>
