<svg width="20" height="20" viewBox="0 0 20 20" fill="none" xmlns="http://www.w3.org/2000/svg">
<path fill-rule="evenodd" clip-rule="evenodd" d="M1.48528 1.48542C2.65685 0.313849 4.55635 0.313849 5.72792 1.48542L9.97056 5.72806L14.2132 1.48542C15.3848 0.313849 17.2843 0.313849 18.4558 1.48542C19.6274 2.657 19.6274 4.55649 18.4558 5.72806L14.2132 9.9707L18.4558 14.2133C19.6274 15.3849 19.6274 17.2844 18.4558 18.456C17.2843 19.6276 15.3848 19.6276 14.2132 18.456L9.97056 14.2133L5.72792 18.456C4.55635 19.6276 2.65685 19.6276 1.48528 18.456C0.313708 17.2844 0.313708 15.3849 1.48528 14.2133L5.72792 9.9707L1.48528 5.72806C0.313708 4.55649 0.313708 2.657 1.48528 1.48542Z" fill="#0C023B"/>
</svg>
