<svg width="26" height="26" viewBox="0 0 26 26" fill="none" xmlns="http://www.w3.org/2000/svg">
<path d="M21.9697 9.59475L24.3447 11.9697C24.4619 12.086 24.5549 12.2242 24.6184 12.3765C24.6818 12.5289 24.7145 12.6922 24.7145 12.8572C24.7145 13.0223 24.6818 13.1856 24.6184 13.338C24.5549 13.4903 24.4619 13.6285 24.3447 13.7447L21.9697 16.1197C21.7388 16.3526 21.6086 16.6668 21.6072 16.9947V20.3572C21.6072 20.6888 21.4756 21.0067 21.2411 21.2411C21.0067 21.4756 20.6888 21.6072 20.3572 21.6072H16.9947C16.6668 21.6086 16.3526 21.7388 16.1197 21.9697L13.7447 24.3447C13.6285 24.4619 13.4903 24.5549 13.338 24.6184C13.1856 24.6818 13.0223 24.7145 12.8572 24.7145C12.6922 24.7145 12.5289 24.6818 12.3765 24.6184C12.2242 24.5549 12.086 24.4619 11.9697 24.3447L9.59475 21.9697C9.36192 21.7388 9.04767 21.6086 8.71975 21.6072H5.35725C5.02573 21.6072 4.70779 21.4756 4.47336 21.2411C4.23894 21.0067 4.10725 20.6888 4.10725 20.3572V16.9947C4.10587 16.6668 3.97568 16.3526 3.74475 16.1197L1.36975 13.7447C1.25259 13.6285 1.15959 13.4903 1.09613 13.338C1.03267 13.1856 1 13.0223 1 12.8572C1 12.6922 1.03267 12.5289 1.09613 12.3765C1.15959 12.2242 1.25259 12.086 1.36975 11.9697L3.74475 9.59475C3.97568 9.36192 4.10587 9.04767 4.10725 8.71975V5.35725C4.10725 5.02573 4.23894 4.70779 4.47336 4.47336C4.70779 4.23894 5.02573 4.10725 5.35725 4.10725H8.71975C9.04767 4.10587 9.36192 3.97568 9.59475 3.74475L11.9697 1.36975C12.086 1.25259 12.2242 1.15959 12.3765 1.09613C12.5289 1.03267 12.6922 1 12.8572 1C13.0223 1 13.1856 1.03267 13.338 1.09613C13.4903 1.15959 13.6285 1.25259 13.7447 1.36975L16.1197 3.74475C16.3526 3.97568 16.6668 4.10587 16.9947 4.10725H20.3572C20.6888 4.10725 21.0067 4.23894 21.2411 4.47336C21.4756 4.70779 21.6072 5.02573 21.6072 5.35725V8.71975C21.6086 9.04767 21.7388 9.36192 21.9697 9.59475ZM12.8572 9.10725C12.1156 9.10725 11.3905 9.32718 10.7739 9.73924C10.1572 10.1513 9.67653 10.737 9.3927 11.4222C9.10887 12.1074 9.03461 12.8614 9.1793 13.5888C9.324 14.3163 9.68115 14.9845 10.2056 15.5089C10.73 16.0333 11.3982 16.3905 12.1257 16.5352C12.8531 16.6799 13.6071 16.6056 14.2923 16.3218C14.9775 16.038 15.5632 15.5573 15.9753 14.9406C16.3873 14.324 16.6072 13.5989 16.6072 12.8572C16.6072 11.8627 16.2122 10.9089 15.5089 10.2056C14.8056 9.50234 13.8518 9.10725 12.8572 9.10725Z" stroke="url(#paint0_linear_350_5796)" stroke-width="2" stroke-linecap="round" stroke-linejoin="round"/>
<defs>
<linearGradient id="paint0_linear_350_5796" x1="12.8572" y1="1" x2="12.8572" y2="24.7145" gradientUnits="userSpaceOnUse">
<stop stop-color="#FE6A2D"/>
<stop offset="1" stop-color="#FC4738"/>
</linearGradient>
</defs>
</svg>
