<svg width="20" height="21" viewBox="0 0 20 21" fill="none" xmlns="http://www.w3.org/2000/svg">
<rect width="20" height="21" fill="#1E1E1E"/>
<g id="&#208;&#186;&#208;&#176;&#209;&#128;&#209;&#130;&#208;&#190;&#209;&#135;&#208;&#186;&#208;&#176; &#209;&#130;&#208;&#190;&#208;&#178;&#208;&#176;&#209;&#128;&#208;&#176;" clip-path="url(#clip0_0_1)">
<rect width="1920" height="7132" transform="translate(-1370 -412)" fill="white"/>
<g id="Frame 1321315225">
<g id="Frame 1321315224">
<rect id="Rectangle 18061" x="-28" y="-162" width="337" height="465" rx="15" fill="#F5F5FA"/>
<g id="Frame 1321315216">
<g id="Frame 1321315215">
<g id="print-alt-5" clip-path="url(#clip1_0_1)">
<path id="primary (Stroke)" fill-rule="evenodd" clip-rule="evenodd" d="M0.585786 3.98581C0.960859 3.61074 1.46957 3.40002 2 3.40002H18C18.5304 3.40002 19.0391 3.61074 19.4142 3.98581C19.7893 4.36089 20 4.86959 20 5.40002V14.4C20 14.9305 19.7893 15.4392 19.4142 15.8142C19.0391 16.1893 18.5304 16.4 18 16.4H16C15.4477 16.4 15 15.9523 15 15.4C15 14.8477 15.4477 14.4 16 14.4H18V5.40002L2 5.40002V14.4H4C4.55228 14.4 5 14.8477 5 15.4C5 15.9523 4.55228 16.4 4 16.4H2C1.46957 16.4 0.960861 16.1893 0.585786 15.8142C0.210713 15.4392 0 14.9305 0 14.4V5.40002C0 4.86959 0.210714 4.36088 0.585786 3.98581Z" fill="#525354"/>
<path id="primary (Stroke)_2" fill-rule="evenodd" clip-rule="evenodd" d="M4.58579 0.985811C4.96086 0.610738 5.46957 0.400024 6 0.400024H14C14.5304 0.400024 15.0391 0.610737 15.4142 0.985811C15.7893 1.36088 16 1.86959 16 2.40002V4.40002C16 4.95231 15.5523 5.40002 15 5.40002H5C4.44772 5.40002 4 4.95231 4 4.40002V2.40002C4 1.86959 4.21071 1.36088 4.58579 0.985811ZM14 2.40002H6L6 3.40002H14V2.40002ZM12 8.40002C12 7.84774 12.4477 7.40002 13 7.40002H15C15.5523 7.40002 16 7.84774 16 8.40002C16 8.95231 15.5523 9.40002 15 9.40002H13C12.4477 9.40002 12 8.95231 12 8.40002ZM3 12.4C3 11.8477 3.44772 11.4 4 11.4H16C16.5523 11.4 17 11.8477 17 12.4V19.4C17 19.9523 16.5523 20.4 16 20.4H4C3.44772 20.4 3 19.9523 3 19.4V12.4ZM5 13.4V18.4H15V13.4H5Z" fill="#525354"/>
</g>
</g>
</g>
</g>
</g>
</g>
<defs>
<clipPath id="clip0_0_1">
<rect width="1920" height="7132" fill="white" transform="translate(-1370 -412)"/>
</clipPath>
<clipPath id="clip1_0_1">
<rect width="20" height="20" fill="white" transform="translate(0 0.400024)"/>
</clipPath>
</defs>
</svg>
