<svg width="34" height="34" viewBox="0 0 34 34" fill="none" xmlns="http://www.w3.org/2000/svg">
<path d="M22.6628 21.2502V8.50016C22.6628 8.12444 22.5135 7.7641 22.2478 7.49843C21.9822 7.23275 21.6218 7.0835 21.2461 7.0835H5.66276C5.28704 7.0835 4.9267 7.23275 4.66103 7.49843C4.39535 7.7641 4.24609 8.12444 4.24609 8.50016V22.6668C4.24609 23.0426 4.39535 23.4029 4.66103 23.6686C4.9267 23.9342 5.28704 24.0835 5.66276 24.0835H8.49609" stroke="url(#paint0_linear_350_5432)" stroke-width="3.05871" stroke-linecap="round" stroke-linejoin="round"/>
<path d="M19.8385 24.0835H14.1719" stroke="url(#paint1_linear_350_5432)" stroke-width="3.05871" stroke-linecap="round" stroke-linejoin="round"/>
<path d="M25.5013 24.0835H28.3346C28.7104 24.0835 29.0707 23.9343 29.3364 23.6686C29.602 23.4029 29.7513 23.0426 29.7513 22.6669V17.0002L27.3146 12.1127C27.1958 11.8769 27.0135 11.679 26.7882 11.5413C26.5629 11.4037 26.3037 11.3317 26.0396 11.3335H22.668" stroke="url(#paint2_linear_350_5432)" stroke-width="3.05871" stroke-linecap="round" stroke-linejoin="round"/>
<path d="M14.1667 24.0836C14.1667 24.644 14.0005 25.1918 13.6892 25.6577C13.3778 26.1236 12.9353 26.4868 12.4176 26.7012C11.8999 26.9157 11.3302 26.9718 10.7806 26.8625C10.231 26.7531 9.72611 26.4833 9.32987 26.087C8.93362 25.6908 8.66377 25.1859 8.55444 24.6363C8.44512 24.0867 8.50123 23.517 8.71568 22.9993C8.93012 22.4816 9.29328 22.0391 9.75922 21.7277C10.2252 21.4164 10.773 21.2502 11.3333 21.2502C12.0848 21.2502 12.8055 21.5488 13.3368 22.0801C13.8682 22.6115 14.1667 23.3321 14.1667 24.0836ZM22.6667 21.2502C22.1063 21.2502 21.5585 21.4164 21.0926 21.7277C20.6266 22.0391 20.2635 22.4816 20.049 22.9993C19.8346 23.517 19.7785 24.0867 19.8878 24.6363C19.9971 25.1859 20.267 25.6908 20.6632 26.087C21.0594 26.4833 21.5643 26.7531 22.1139 26.8625C22.6635 26.9718 23.2332 26.9157 23.7509 26.7012C24.2687 26.4868 24.7112 26.1236 25.0225 25.6577C25.3338 25.1918 25.5 24.644 25.5 24.0836C25.5 23.3321 25.2015 22.6115 24.6701 22.0801C24.1388 21.5488 23.4181 21.2502 22.6667 21.2502Z" stroke="url(#paint3_linear_350_5432)" stroke-width="3.05871" stroke-linecap="round" stroke-linejoin="round"/>
<defs>
<linearGradient id="paint0_linear_350_5432" x1="13.4544" y1="7.0835" x2="13.4544" y2="24.0835" gradientUnits="userSpaceOnUse">
<stop stop-color="#FE6A2D"/>
<stop offset="1" stop-color="#FC4738"/>
</linearGradient>
<linearGradient id="paint1_linear_350_5432" x1="17.0052" y1="24.0835" x2="17.0052" y2="25.0835" gradientUnits="userSpaceOnUse">
<stop stop-color="#FE6A2D"/>
<stop offset="1" stop-color="#FC4738"/>
</linearGradient>
<linearGradient id="paint2_linear_350_5432" x1="26.2096" y1="11.3335" x2="26.2096" y2="24.0835" gradientUnits="userSpaceOnUse">
<stop stop-color="#FE6A2D"/>
<stop offset="1" stop-color="#FC4738"/>
</linearGradient>
<linearGradient id="paint3_linear_350_5432" x1="17" y1="21.2502" x2="17" y2="26.9169" gradientUnits="userSpaceOnUse">
<stop stop-color="#FE6A2D"/>
<stop offset="1" stop-color="#FC4738"/>
</linearGradient>
</defs>
</svg>
