<svg width="30" height="30" viewBox="0 0 30 30" fill="none" xmlns="http://www.w3.org/2000/svg">
<path fill-rule="evenodd" clip-rule="evenodd" d="M2.12224 26.6126C2.0223 26.9753 2.35269 27.3102 2.71675 27.2151L8.34443 25.7451C10.1209 26.7074 12.1209 27.2186 14.1572 27.2186H14.1633C20.8642 27.2186 26.3265 21.7879 26.3265 15.1123C26.3265 11.8768 25.0635 8.83362 22.7675 6.54823C20.4715 4.26295 17.42 3 14.1631 3C7.46233 3 2 8.43068 2 15.1063C1.99924 17.23 2.55979 19.3165 3.62538 21.1564L2.12224 26.6126ZM10.3082 9.31477C10.5317 9.32076 10.7794 9.33284 11.0152 9.8561C11.1715 10.2044 11.4348 10.8457 11.6493 11.3681C11.8162 11.7746 11.9536 12.1091 11.988 12.1775C12.0665 12.3339 12.1148 12.5143 12.0121 12.7247C12 12.7496 11.9886 12.7733 11.9776 12.7961C11.8952 12.9672 11.8365 13.0888 11.698 13.248C11.641 13.3134 11.5816 13.3851 11.5225 13.4566C11.4185 13.5822 11.3152 13.7071 11.2266 13.7953C11.0695 13.9515 10.9063 14.1201 11.0876 14.4328C11.2689 14.7455 11.9034 15.7739 12.84 16.6038C13.8468 17.5002 14.7224 17.878 15.165 18.069C15.2509 18.1061 15.3205 18.1361 15.3716 18.1615C15.6859 18.3179 15.8731 18.2938 16.0544 18.0833C16.2358 17.8728 16.8399 17.1691 17.0515 16.8564C17.2569 16.5437 17.4683 16.5919 17.7584 16.7001C18.0484 16.8083 19.5952 17.5661 19.9094 17.7224C19.9715 17.7533 20.0296 17.7812 20.0834 17.807C20.3021 17.9118 20.4506 17.9831 20.5137 18.0893C20.5922 18.2216 20.5922 18.8471 20.3324 19.5808C20.0666 20.3145 18.7856 21.0182 18.2055 21.0723C18.1506 21.0775 18.0959 21.0841 18.0397 21.0909C17.5081 21.1552 16.8333 21.2368 14.429 20.2904C11.4665 19.1255 9.51092 16.235 9.11555 15.6506C9.08434 15.6045 9.06285 15.5727 9.05135 15.5573L9.04467 15.5484C8.86479 15.3077 7.76431 13.8352 7.76431 12.3159C7.76431 10.8623 8.48036 10.1056 8.80696 9.76038C8.82766 9.73851 8.84679 9.71829 8.86408 9.69965C9.15407 9.38696 9.49251 9.30878 9.70396 9.30878C9.91551 9.30878 10.127 9.30878 10.3082 9.31477Z" fill="white"/>
</svg>
