<svg>

	<symbol id="location-ico" xmlns="http://www.w3.org/2000/svg" width="24" height="24" viewBox="0 0 24 24" fill="none">
		<circle cx="12" cy="8" r="1.25" fill="#525354" />
		<path
			d="M15.93 18.64C15.9773 18.7541 16.0011 18.8765 16 19C16 20.1 14.21 21 12 21C9.79003 21 8.00003 20.1 8.00003 19C7.99897 18.8765 8.02278 18.7541 8.07003 18.64"
			stroke="#525354" stroke-width="2" stroke-linecap="round" stroke-linejoin="round" />
		<path
			d="M17 8C17 6.67392 16.4732 5.40215 15.5355 4.46447C14.5979 3.52678 13.3261 3 12 3C10.6739 3 9.40215 3.52678 8.46447 4.46447C7.52678 5.40215 7 6.67392 7 8C7 12 12 17 12 17C12 17 17 12 17 8Z"
			stroke="#525354" stroke-width="2" stroke-linecap="round" stroke-linejoin="round" />
	</symbol>

	<symbol id="arrow-ico" xmlns="http://www.w3.org/2000/svg" width="11" height="6" viewBox="0 0 11 6" fill="none">
		<path d="M10 1L5.5 5.5L1 1" stroke="#525354" stroke-linecap="round" stroke-linejoin="round" />
	</symbol>

	<symbol id="catalog-ico" xmlns="http://www.w3.org/2000/svg" width="24" height="25" viewBox="0 0 24 25">
		<path d="M5 12.5H19" stroke-width="2" stroke-linecap="round" stroke-linejoin="round" />
		<path d="M3 7.5H21M7 17.5H17" stroke-width="2" stroke-linecap="round" stroke-linejoin="round" />
	</symbol>

	<symbol id="search-ico" width="20" height="19" viewBox="0 0 20 19" fill="none" xmlns="http://www.w3.org/2000/svg">
		<path
			d="M19 19L14.66 14.66M17 9C17 10.5823 16.5308 12.129 15.6518 13.4446C14.7727 14.7602 13.5233 15.7855 12.0615 16.391C10.5997 16.9965 8.99113 17.155 7.43928 16.8463C5.88743 16.5376 4.46197 15.7757 3.34315 14.6569C2.22433 13.538 1.4624 12.1126 1.15372 10.5607C0.84504 9.00887 1.00347 7.40034 1.60897 5.93853C2.21447 4.47672 3.23985 3.22729 4.55544 2.34824C5.87103 1.46919 7.41775 1 9 1C11.1217 1 13.1566 1.84285 14.6569 3.34315C16.1571 4.84344 17 6.87827 17 9Z"
			stroke="url(#paint0_linear_211_3996)" stroke-width="2" stroke-linecap="round" stroke-linejoin="round" />
		<defs>
			<linearGradient id="paint0_linear_211_3996" x1="10" y1="1" x2="10" y2="19" gradientUnits="userSpaceOnUse">
				<stop stop-color="#FE6A2D" />
				<stop offset="1" stop-color="#FC4738" />
			</linearGradient>
		</defs>
	</symbol>

	<symbol id="cart-ico" xmlns="http://www.w3.org/2000/svg" width="34" height="34" viewBox="0 0 34 34" fill="none">
		<path d="M15.582 29.0417H15.7237M24.082 29.0417H24.2237" stroke="white" stroke-width="3.54167"
			stroke-linecap="round" stroke-linejoin="round" />
		<path d="M17 9.91668L19.8333 12.75L25.5 7.08334" stroke="white" stroke-width="2.83333" stroke-linecap="round"
			stroke-linejoin="round" />
		<path
			d="M4.25 4.25H7.36667C7.69415 4.24199 8.01428 4.34772 8.27257 4.54919C8.53087 4.75067 8.71136 5.03542 8.78333 5.355L12.495 21.5617C12.567 21.8812 12.7475 22.166 13.0058 22.3675C13.2641 22.5689 13.5842 22.6747 13.9117 22.6667H25.84C26.1636 22.6761 26.4807 22.5744 26.7385 22.3785C26.9962 22.1826 27.1791 21.9043 27.2567 21.59L29.75 11.3333"
			stroke="white" stroke-width="2.83333" stroke-linecap="round" stroke-linejoin="round" />
	</symbol>

	<symbol id="cart-ico-mob" xmlns="http://www.w3.org/2000/svg" width="24" height="24" viewBox="0 0 24 24">
		<path d="M11 20.5H11.1M17 20.5H17.1" stroke-width="3.13777" stroke-linecap="round" stroke-linejoin="round" />
		<path d="M12 7L14 9L18 5" stroke-width="2.51022" stroke-linecap="round" stroke-linejoin="round" />
		<path
			d="M3 3.00005H5.2C5.43116 2.9944 5.65714 3.06904 5.83946 3.21125C6.02179 3.35347 6.1492 3.55447 6.2 3.78005L8.82 15.2201C8.8708 15.4456 8.99821 15.6466 9.18054 15.7889C9.36286 15.9311 9.58884 16.0057 9.82 16.0001H18.24C18.4684 16.0067 18.6923 15.9349 18.8742 15.7966C19.0562 15.6584 19.1852 15.4619 19.24 15.2401L21 8.00005"
			stroke-width="2.51022" stroke-linecap="round" stroke-linejoin="round" />
	</symbol>

	<symbol id="card-arrow" xmlns="http://www.w3.org/2000/svg" width="32" height="32" viewBox="0 0 32 32">
		<path
			d="M7.29327 23.2925C7.10573 23.4801 7 23.7348 7 24C7 24.2652 7.10536 24.5196 7.29289 24.7071C7.48043 24.8946 7.73478 25 8 25C8.26522 25 8.51957 24.8946 8.70711 24.7071L24.7071 8.70711C24.8946 8.51957 25 8.26522 25 8C25 7.73478 24.8946 7.48043 24.7071 7.29289C24.5196 7.10536 24.2652 7 24 7C23.9827 7 23.9655 7.00045 23.9483 7.00134C23.7013 7.01414 23.4678 7.11801 23.2929 7.29289L7.29327 23.2925Z" />
		<path
			d="M9 23V11C9 10.4477 8.55228 10 8 10C7.44772 10 7 10.4477 7 11V24C7 24.5523 7.44772 25 8 25H21C21.5523 25 22 24.5523 22 24C22 23.4477 21.5523 23 21 23H9Z" />
	</symbol>

	<symbol id="triangle" xmlns="http://www.w3.org/2000/svg" width="82" height="82" viewBox="0 0 82 82" fill="none">
		<path
			d="M74.6716 6.82843L6.82843 74.6716C4.30857 77.1914 6.09323 81.5 9.65685 81.5H77.5C79.7091 81.5 81.5 79.7091 81.5 77.5V9.65685C81.5 6.09324 77.1914 4.30857 74.6716 6.82843Z"
			fill="url(#paint0_linear_211_3581)" />
		<defs>
			<linearGradient id="paint0_linear_211_3581" x1="40.75" y1="0" x2="40.75" y2="81.5" gradientUnits="userSpaceOnUse">
				<stop stop-color="#FE6A2D" />
				<stop offset="1" stop-color="#FC4738" />
			</linearGradient>
		</defs>
	</symbol>

	<symbol id="shipping" xmlns="http://www.w3.org/2000/svg" width="24" height="24" viewBox="0 0 24 24" fill="none">
		<path
			d="M16 15V6C16 5.73478 15.8946 5.48043 15.7071 5.29289C15.5196 5.10536 15.2652 5 15 5H4C3.73478 5 3.48043 5.10536 3.29289 5.29289C3.10536 5.48043 3 5.73478 3 6V16C3 16.2652 3.10536 16.5196 3.29289 16.7071C3.48043 16.8946 3.73478 17 4 17H6"
			stroke="white" stroke-width="2" stroke-linecap="round" stroke-linejoin="round" />
		<path d="M14 17H10" stroke="white" stroke-width="2" stroke-linecap="round" stroke-linejoin="round" />
		<path
			d="M18 17H20C20.2652 17 20.5196 16.8947 20.7071 16.7071C20.8946 16.5196 21 16.2652 21 16V12L19.28 8.55002C19.1961 8.38359 19.0674 8.2439 18.9084 8.14672C18.7494 8.04954 18.5664 7.99873 18.38 8.00002H16"
			stroke="white" stroke-width="2" stroke-linecap="round" stroke-linejoin="round" />
		<path
			d="M10 17C10 17.3956 9.8827 17.7822 9.66294 18.1111C9.44318 18.44 9.13082 18.6964 8.76537 18.8478C8.39992 18.9991 7.99778 19.0387 7.60982 18.9616C7.22186 18.8844 6.86549 18.6939 6.58579 18.4142C6.30608 18.1345 6.1156 17.7781 6.03843 17.3902C5.96126 17.0022 6.00087 16.6001 6.15224 16.2346C6.30362 15.8692 6.55996 15.5568 6.88886 15.3371C7.21776 15.1173 7.60444 15 8 15C8.53043 15 9.03914 15.2107 9.41421 15.5858C9.78929 15.9609 10 16.4696 10 17ZM16 15C15.6044 15 15.2178 15.1173 14.8889 15.3371C14.56 15.5568 14.3036 15.8692 14.1522 16.2346C14.0009 16.6001 13.9613 17.0022 14.0384 17.3902C14.1156 17.7781 14.3061 18.1345 14.5858 18.4142C14.8655 18.6939 15.2219 18.8844 15.6098 18.9616C15.9978 19.0387 16.3999 18.9991 16.7654 18.8478C17.1308 18.6964 17.4432 18.44 17.6629 18.1111C17.8827 17.7822 18 17.3956 18 17C18 16.4696 17.7893 15.9609 17.4142 15.5858C17.0391 15.2107 16.5304 15 16 15Z"
			stroke="white" stroke-width="2" stroke-linecap="round" stroke-linejoin="round" />
	</symbol>

	<symbol id="whatsapp" width="30" height="30" viewBox="0 0 30 30" fill="none" xmlns="http://www.w3.org/2000/svg">
		<path fill-rule="evenodd" clip-rule="evenodd"
			d="M2.12224 26.6126C2.0223 26.9753 2.35269 27.3102 2.71675 27.2151L8.34443 25.7451C10.1209 26.7074 12.1209 27.2186 14.1572 27.2186H14.1633C20.8642 27.2186 26.3265 21.7879 26.3265 15.1123C26.3265 11.8768 25.0635 8.83362 22.7675 6.54823C20.4715 4.26295 17.42 3 14.1631 3C7.46233 3 2 8.43068 2 15.1063C1.99924 17.23 2.55979 19.3165 3.62538 21.1564L2.12224 26.6126ZM10.3082 9.31477C10.5317 9.32076 10.7794 9.33284 11.0152 9.8561C11.1715 10.2044 11.4348 10.8457 11.6493 11.3681C11.8162 11.7746 11.9536 12.1091 11.988 12.1775C12.0665 12.3339 12.1148 12.5143 12.0121 12.7247C12 12.7496 11.9886 12.7733 11.9776 12.7961C11.8952 12.9672 11.8365 13.0888 11.698 13.248C11.641 13.3134 11.5816 13.3851 11.5225 13.4566C11.4185 13.5822 11.3152 13.7071 11.2266 13.7953C11.0695 13.9515 10.9063 14.1201 11.0876 14.4328C11.2689 14.7455 11.9034 15.7739 12.84 16.6038C13.8468 17.5002 14.7224 17.878 15.165 18.069C15.2509 18.1061 15.3205 18.1361 15.3716 18.1615C15.6859 18.3179 15.8731 18.2938 16.0544 18.0833C16.2358 17.8728 16.8399 17.1691 17.0515 16.8564C17.2569 16.5437 17.4683 16.5919 17.7584 16.7001C18.0484 16.8083 19.5952 17.5661 19.9094 17.7224C19.9715 17.7533 20.0296 17.7812 20.0834 17.807C20.3021 17.9118 20.4506 17.9831 20.5137 18.0893C20.5922 18.2216 20.5922 18.8471 20.3324 19.5808C20.0666 20.3145 18.7856 21.0182 18.2055 21.0723C18.1506 21.0775 18.0959 21.0841 18.0397 21.0909C17.5081 21.1552 16.8333 21.2368 14.429 20.2904C11.4665 19.1255 9.51092 16.235 9.11555 15.6506C9.08434 15.6045 9.06285 15.5727 9.05135 15.5573L9.04467 15.5484C8.86479 15.3077 7.76431 13.8352 7.76431 12.3159C7.76431 10.8623 8.48036 10.1056 8.80696 9.76038C8.82766 9.73851 8.84679 9.71829 8.86408 9.69965C9.15407 9.38696 9.49251 9.30878 9.70396 9.30878C9.91551 9.30878 10.127 9.30878 10.3082 9.31477Z"
			fill="white" />
	</symbol>

	<symbol id="vk" xmlns="http://www.w3.org/2000/svg" width="30" height="30" viewBox="0 0 30 30" fill="none">
		<path
			d="M26.828 22.6707H24.0412C22.9869 22.6707 22.6698 21.8169 20.7788 19.926C19.1285 18.3349 18.4314 18.1362 18.0131 18.1362C17.4362 18.1362 17.2777 18.2948 17.2777 19.0913V21.5973C17.2777 22.2753 17.058 22.6726 15.2874 22.6726C13.569 22.5571 11.9026 22.0351 10.4256 21.1494C8.94846 20.2638 7.7029 19.0399 6.79148 17.5785C4.62771 14.8853 3.12215 11.7244 2.39453 8.3472C2.39453 7.9289 2.55307 7.55071 3.34956 7.55071H6.13442C6.85069 7.55071 7.10855 7.86969 7.38933 8.60506C8.74165 12.5856 11.049 16.0466 11.9849 16.0466C12.344 16.0466 12.5006 15.8881 12.5006 14.9923V10.8933C12.3822 9.02337 11.389 8.86483 11.389 8.18867C11.4017 8.01033 11.4835 7.84397 11.6168 7.72487C11.7502 7.60577 11.9247 7.5433 12.1034 7.55071H16.4812C17.079 7.55071 17.2777 7.84868 17.2777 8.56495V14.0965C17.2777 14.6943 17.5356 14.893 17.7151 14.893C18.0742 14.893 18.3511 14.6943 19.0082 14.0373C20.4195 12.3162 21.5725 10.3988 22.431 8.3453C22.5188 8.09864 22.6848 7.88746 22.9038 7.74399C23.1228 7.60053 23.3827 7.53265 23.6439 7.55071H26.4307C27.2654 7.55071 27.443 7.96901 27.2654 8.56495C26.2521 10.8349 24.9983 12.9897 23.5255 14.9923C23.2256 15.4507 23.1053 15.6895 23.5255 16.2262C23.8025 16.6445 24.7785 17.4601 25.4355 18.2356C26.3904 19.188 27.1833 20.29 27.783 21.4979C28.0218 22.2734 27.6226 22.6707 26.828 22.6707Z"
			fill="white" />
	</symbol>

	<symbol id="ok" xmlns="http://www.w3.org/2000/svg" width="30" height="30" viewBox="0 0 30 30" fill="none">
		<path
			d="M14.7829 2.80566C11.3114 2.80566 8.45703 5.62145 8.45703 9.13155C8.45703 12.6416 11.2728 15.4574 14.7829 15.4574C18.293 15.4574 21.1088 12.6416 21.1088 9.13155C21.1088 5.62145 18.293 2.80566 14.7829 2.80566ZM14.7829 12.2752C13.0279 12.2752 11.62 10.8673 11.62 9.11226C11.62 7.35721 13.0279 5.96861 14.7829 5.96861C16.538 5.96861 17.9459 7.3765 17.9459 9.13155C17.9459 10.8673 16.538 12.2752 14.7829 12.2752Z"
			fill="white" />
		<path
			d="M24.0997 16.402C23.5404 15.3605 22.2289 14.9941 21.1874 15.592C16.8866 18.0028 12.7015 18.0028 8.40067 15.592C7.35921 14.9941 6.04775 15.3798 5.44988 16.4406C4.852 17.4627 5.23773 18.7935 6.29847 19.3528C7.70637 20.1628 9.21069 20.7607 10.7729 21.2043L7.72565 24.2515C6.87706 25.1001 6.87706 26.4501 7.72565 27.2601C8.53567 28.1087 9.88571 28.1087 10.7343 27.2601L14.7844 23.21L18.8345 27.2601C19.6445 28.1087 20.9946 28.1087 21.8432 27.2601C22.6918 26.4116 22.6918 25.0615 21.8432 24.2515L18.7959 21.2043C20.3581 20.7993 21.8625 20.1628 23.2704 19.3528C24.3118 18.7549 24.6975 17.4627 24.0997 16.402C24.0997 16.4406 24.0997 16.4406 24.0997 16.402Z"
			fill="white" />
	</symbol>

	<symbol id="telegram" xmlns="http://www.w3.org/2000/svg" width="30" height="30" viewBox="0 0 30 30" fill="none">
		<path fill-rule="evenodd" clip-rule="evenodd"
			d="M23.2594 24.392L23.2603 24.3899L23.2815 24.3368L26.9444 5.86941V5.80943C26.9444 5.3493 26.7744 4.94761 26.4045 4.70667C26.0806 4.49577 25.7084 4.48075 25.4474 4.50056C25.1713 4.52152 24.911 4.59043 24.7308 4.64779C24.638 4.6773 24.5604 4.70573 24.505 4.72724C24.4771 4.73803 24.4545 4.74719 24.4381 4.75401L24.422 4.7608L3.99938 12.7723L3.99376 12.7743C3.98273 12.7783 3.96814 12.7838 3.95053 12.7906C3.9154 12.8043 3.8676 12.8239 3.81143 12.8493C3.70116 12.8993 3.5488 12.9764 3.39428 13.0822C3.13185 13.2619 2.63213 13.6874 2.71651 14.3619C2.7864 14.9206 3.17153 15.2755 3.43118 15.4592C3.57036 15.5577 3.70352 15.6287 3.80102 15.6751C3.85043 15.6986 3.8924 15.7166 3.92365 15.7294C3.93932 15.7357 3.95242 15.7408 3.96256 15.7447L3.97554 15.7495L3.98383 15.7526L7.5569 16.9555C7.54484 17.1797 7.56708 17.4083 7.62653 17.6338L9.41632 24.4232C9.62853 25.2282 10.3568 25.7889 11.1893 25.7883C11.9355 25.7878 12.5974 25.3364 12.8785 24.6628L15.6728 21.675L20.4719 25.3543L20.5402 25.3841C20.9762 25.5744 21.3835 25.6347 21.756 25.5838C22.1279 25.533 22.4235 25.377 22.6455 25.1994C22.864 25.0246 23.0137 24.8273 23.1079 24.6788C23.1557 24.6034 23.1914 24.5371 23.2161 24.4871C23.2285 24.4621 23.2383 24.4409 23.2457 24.4243L23.2549 24.4031L23.2581 24.3952L23.2594 24.392ZM9.39813 17.1667C9.35746 17.0124 9.42132 16.8495 9.55603 16.764L21.6754 9.06768C21.6754 9.06768 22.3882 8.63492 22.3627 9.06768C22.3627 9.06768 22.49 9.1441 22.108 9.50044C21.7457 9.83887 13.4702 17.8285 12.6328 18.637C12.5845 18.6837 12.5557 18.7372 12.5386 18.8022L11.1879 23.9561L9.39813 17.1667Z"
			fill="white" />
	</symbol>

	<symbol id="filter" xmlns="http://www.w3.org/2000/svg" width="19" height="19" viewBox="0 0 19 19">
		<path d="M2.375 15.0417H13.4583M5.54167 9.50002H16.625M11.0833 3.95835H16.625M7.91667 3.95835H2.375"
			stroke-width="2" stroke-linecap="round" stroke-linejoin="round" />
		<path
			d="M13.4583 15.0417C13.4583 15.3548 13.5512 15.6609 13.7252 15.9213C13.8992 16.1817 14.1464 16.3846 14.4358 16.5045C14.7251 16.6243 15.0434 16.6557 15.3506 16.5946C15.6577 16.5335 15.9398 16.3827 16.1613 16.1613C16.3827 15.9398 16.5335 15.6577 16.5946 15.3506C16.6557 15.0434 16.6243 14.7251 16.5045 14.4358C16.3846 14.1464 16.1817 13.8992 15.9213 13.7252C15.6609 13.5512 15.3548 13.4583 15.0417 13.4583C14.6217 13.4583 14.219 13.6251 13.9221 13.9221C13.6251 14.219 13.4583 14.6217 13.4583 15.0417ZM2.375 9.5C2.375 9.81315 2.46786 10.1193 2.64184 10.3797C2.81582 10.64 3.0631 10.843 3.35242 10.9628C3.64173 11.0826 3.96009 11.114 4.26723 11.0529C4.57436 10.9918 4.85649 10.841 5.07792 10.6196C5.29935 10.3982 5.45015 10.116 5.51124 9.80889C5.57234 9.50176 5.54098 9.1834 5.42114 8.89408C5.3013 8.60477 5.09836 8.35748 4.83799 8.18351C4.57761 8.00953 4.27149 7.91667 3.95833 7.91667C3.53841 7.91667 3.13568 8.08348 2.83875 8.38041C2.54181 8.67735 2.375 9.08007 2.375 9.5ZM7.91667 3.95833C7.91667 4.27149 8.00953 4.57761 8.18351 4.83799C8.35749 5.09836 8.60477 5.3013 8.89408 5.42114C9.1834 5.54098 9.50176 5.57234 9.80889 5.51124C10.116 5.45015 10.3982 5.29935 10.6196 5.07792C10.841 4.85648 10.9918 4.57436 11.0529 4.26723C11.114 3.96009 11.0826 3.64173 10.9628 3.35242C10.843 3.0631 10.64 2.81582 10.3797 2.64184C10.1193 2.46786 9.81315 2.375 9.5 2.375C9.08007 2.375 8.67735 2.54181 8.38041 2.83875C8.08348 3.13568 7.91667 3.53841 7.91667 3.95833Z"
			stroke-width="2" stroke-linecap="round" stroke-linejoin="round" />
	</symbol>

	<symbol id="filter-add" xmlns="http://www.w3.org/2000/svg" width="18" height="18" viewBox="0 0 18 18">
		<path
			d="M16.2227 11.0625C16.2227 11.73 16.0352 12.36 15.7052 12.9C15.0902 13.935 13.9577 14.625 12.6602 14.625C11.3627 14.625 10.2302 13.9275 9.61516 12.9C9.28516 12.3675 9.09766 11.73 9.09766 11.0625C9.09766 9.0975 10.6952 7.5 12.6602 7.5C14.6252 7.5 16.2227 9.0975 16.2227 11.0625Z"
			stroke="url(#paint0_linear_1103_5337)" stroke-width="1.5" stroke-miterlimit="10" stroke-linecap="round"
			stroke-linejoin="round" />
		<path d="M13.9945 11.0474H11.332" stroke="url(#paint1_linear_1103_5337)" stroke-width="1.5" stroke-miterlimit="10"
			stroke-linecap="round" stroke-linejoin="round" />
		<path d="M12.6602 9.75V12.4125" stroke="url(#paint2_linear_1103_5337)" stroke-width="1.5" stroke-miterlimit="10"
			stroke-linecap="round" stroke-linejoin="round" />
		<path
			d="M15.5194 3.01501V4.67999C15.5194 5.28749 15.1369 6.04501 14.7619 6.42751L13.4419 7.59C13.1944 7.53 12.9319 7.5 12.6619 7.5C10.6969 7.5 9.09937 9.0975 9.09937 11.0625C9.09937 11.73 9.28687 12.36 9.61687 12.9C9.89437 13.365 10.2769 13.7625 10.7419 14.0475V14.3025C10.7419 14.76 10.4419 15.3675 10.0594 15.5925L9.00187 16.275C8.01937 16.8825 6.65437 16.2 6.65437 14.985V10.9725C6.65437 10.44 6.34688 9.75751 6.04688 9.38251L3.16687 6.35248C2.79187 5.96998 2.48438 5.28751 2.48438 4.83751V3.09C2.48438 2.1825 3.16688 1.5 3.99938 1.5H14.0044C14.8369 1.5 15.5194 2.18251 15.5194 3.01501Z"
			stroke="url(#paint3_linear_1103_5337)" stroke-width="1.5" stroke-miterlimit="10" stroke-linecap="round"
			stroke-linejoin="round" />
		<defs>
			<linearGradient id="paint0_linear_1103_5337" x1="12.6602" y1="7.5" x2="12.6602" y2="14.625"
				gradientUnits="userSpaceOnUse">
				<stop stop-color="#FE6A2D" />
				<stop offset="1" stop-color="#FC4738" />
			</linearGradient>
			<linearGradient id="paint1_linear_1103_5337" x1="12.6633" y1="11.0474" x2="12.6633" y2="12.0474"
				gradientUnits="userSpaceOnUse">
				<stop stop-color="#FE6A2D" />
				<stop offset="1" stop-color="#FC4738" />
			</linearGradient>
			<linearGradient id="paint2_linear_1103_5337" x1="13.1602" y1="9.75" x2="13.1602" y2="12.4125"
				gradientUnits="userSpaceOnUse">
				<stop stop-color="#FE6A2D" />
				<stop offset="1" stop-color="#FC4738" />
			</linearGradient>
			<linearGradient id="paint3_linear_1103_5337" x1="9.00188" y1="1.5" x2="9.00188" y2="16.5007"
				gradientUnits="userSpaceOnUse">
				<stop stop-color="#FE6A2D" />
				<stop offset="1" stop-color="#FC4738" />
			</linearGradient>
		</defs>
	</symbol>

	<symbol id="arrow-down" xmlns="http://www.w3.org/2000/svg" width="8" height="9" viewBox="0 0 8 9" fill="none">
		<rect width="8" height="8" transform="translate(0 0.5)" fill="white" />
		<path
			d="M3.72659 7.02284C3.75717 7.06725 3.79809 7.10357 3.84582 7.12865C3.89355 7.15374 3.94667 7.16685 4.00059 7.16685C4.05451 7.16685 4.10763 7.15374 4.15536 7.12865C4.20309 7.10357 4.24401 7.06725 4.27459 7.02284L7.27459 2.6895C7.30932 2.63952 7.32968 2.58098 7.33347 2.52024C7.33726 2.4595 7.32433 2.39888 7.29609 2.34497C7.26784 2.29106 7.22536 2.24592 7.17327 2.21446C7.12117 2.18299 7.06145 2.16641 7.00059 2.1665H1.00059C0.93987 2.16676 0.880369 2.18355 0.828483 2.21509C0.776597 2.24663 0.73429 2.29172 0.706112 2.3455C0.677934 2.39929 0.664951 2.45974 0.668559 2.52035C0.672167 2.58096 0.69223 2.63944 0.726589 2.6895L3.72659 7.02284Z"
			fill="url(#paint0_linear_1103_2133)" />
		<defs>
			<linearGradient id="paint0_linear_1103_2133" x1="4.00104" y1="2.1665" x2="4.00104" y2="7.16685"
				gradientUnits="userSpaceOnUse">
				<stop stop-color="#FE6A2D" />
				<stop offset="1" stop-color="#FC4738" />
			</linearGradient>
		</defs>
	</symbol>

	<symbol id="like-ico" xmlns="http://www.w3.org/2000/svg" width="12" height="12" viewBox="0 0 12 12" fill="none">
		<g clip-path="url(#clip0_592_11809)">
			<path
				d="M11.0093 6.29128C11.2343 5.99396 11.3588 5.62967 11.3588 5.25065C11.3588 4.64931 11.0227 4.08012 10.4816 3.76271C10.3423 3.681 10.1837 3.638 10.0222 3.63815H6.8106L6.89096 1.99217C6.90971 1.5944 6.76909 1.21672 6.49587 0.928777C6.36179 0.78685 6.20003 0.673928 6.02058 0.596989C5.84113 0.52005 5.64781 0.480729 5.45257 0.481455C4.75614 0.481455 4.14007 0.950205 3.95525 1.62119L2.8048 5.78637H1.0731C0.836049 5.78637 0.644531 5.97788 0.644531 6.21494V11.0899C0.644531 11.327 0.836049 11.5185 1.0731 11.5185H9.12623C9.24944 11.5185 9.36998 11.4944 9.48114 11.4462C10.1186 11.1743 10.5298 10.5515 10.5298 9.86047C10.5298 9.69172 10.5057 9.52565 10.4575 9.36494C10.6825 9.06762 10.807 8.70333 10.807 8.32431C10.807 8.15556 10.7829 7.98949 10.7347 7.82878C10.9597 7.53146 11.0843 7.16717 11.0843 6.78815C11.0816 6.6194 11.0575 6.45199 11.0093 6.29128ZM1.60882 10.5542V6.75065H2.69364V10.5542H1.60882ZM10.132 5.82655L9.83873 6.08101L10.0249 6.42119C10.0862 6.53325 10.118 6.65907 10.1173 6.78681C10.1173 7.0078 10.0209 7.21806 9.8548 7.36271L9.5615 7.61717L9.74766 7.95735C9.80899 8.06941 9.84079 8.19523 9.84007 8.32297C9.84007 8.54396 9.74364 8.75422 9.57757 8.89887L9.28426 9.15333L9.47043 9.49351C9.53176 9.60557 9.56356 9.73139 9.56284 9.85913C9.56284 10.1591 9.38605 10.4297 9.11284 10.5529H3.55078V6.7078L4.88337 1.87967C4.91773 1.75592 4.9915 1.64674 5.09348 1.56868C5.19547 1.49062 5.32012 1.44793 5.44855 1.44708C5.55034 1.44708 5.65078 1.47654 5.73114 1.53681C5.86373 1.63592 5.93471 1.78592 5.92668 1.94529L5.7981 4.60244H10.0088C10.2472 4.74842 10.3945 4.99485 10.3945 5.25065C10.3945 5.47163 10.2981 5.68056 10.132 5.82655Z"
				fill="#08090B" />
		</g>
		<defs>
			<clipPath id="clip0_592_11809">
				<rect width="12" height="12" fill="white" transform="translate(0 0.000976562)" />
			</clipPath>
		</defs>
	</symbol>

	<symbol id="dislike" xmlns="http://www.w3.org/2000/svg" width="12" height="12" viewBox="0 0 12 12" fill="none">
		<g clip-path="url(#clip0_592_11813)">
			<path
				d="M11.0093 5.71321C11.0575 5.55249 11.0816 5.38642 11.0816 5.21767C11.0816 4.83865 10.957 4.47437 10.732 4.17705C10.7802 4.01633 10.8044 3.85026 10.8044 3.68151C10.8044 3.30249 10.6798 2.93821 10.4548 2.64089C10.503 2.48017 10.5271 2.3141 10.5271 2.14535C10.5271 1.45428 10.116 0.831512 9.47846 0.559637C9.36641 0.511327 9.24557 0.486705 9.12355 0.487316H1.0731C0.836049 0.487316 0.644531 0.678834 0.644531 0.915887V5.79089C0.644531 6.02794 0.836049 6.21946 1.0731 6.21946H2.8048L3.95391 10.382C4.13873 11.0529 4.7548 11.5217 5.45123 11.5217C5.849 11.5217 6.21998 11.3637 6.49453 11.0744C6.76909 10.7864 6.90971 10.4087 6.88962 10.011L6.80926 8.36499H10.0222C10.1843 8.36499 10.3423 8.32214 10.4816 8.24044C11.0227 7.92571 11.3588 7.35517 11.3588 6.75383C11.3588 6.37482 11.2343 6.01053 11.0093 5.71321ZM1.60882 5.25383V1.45026H2.69364V5.25383H1.60882ZM10.0088 7.40205H5.7981L5.92668 10.0592C5.93471 10.2186 5.86373 10.3686 5.73114 10.4677C5.64944 10.5279 5.549 10.5587 5.44855 10.5574C5.32022 10.5562 5.19576 10.5133 5.09385 10.4353C4.99194 10.3573 4.91809 10.2484 4.88337 10.1248L3.55078 5.29669V1.45026H9.11418C9.24805 1.51026 9.36173 1.60765 9.44156 1.73072C9.5214 1.8538 9.56397 1.99731 9.56418 2.14401C9.56418 2.27392 9.53337 2.39714 9.47176 2.50964L9.2856 2.84982L9.57891 3.10428C9.66146 3.17578 9.72764 3.26423 9.77294 3.36361C9.81824 3.46299 9.84159 3.57096 9.84141 3.68017C9.84141 3.81008 9.8106 3.9333 9.749 4.0458L9.56284 4.38598L9.85614 4.64044C9.9387 4.71194 10.0049 4.80039 10.0502 4.89977C10.0955 4.99915 10.1188 5.10712 10.1186 5.21633C10.1186 5.34624 10.0878 5.46946 10.0262 5.58196L9.83873 5.92348L10.132 6.17794C10.2146 6.24944 10.2808 6.33789 10.3261 6.43727C10.3714 6.53665 10.3947 6.64462 10.3945 6.75383C10.3945 7.00964 10.2472 7.25607 10.0088 7.40205Z"
				fill="#08090B" />
		</g>
		<defs>
			<clipPath id="clip0_592_11813">
				<rect width="12" height="12" fill="white" transform="translate(0 0.000976562)" />
			</clipPath>
		</defs>
	</symbol>


	<symbol id="cart-check" viewBox="0 0 34 34" xmlns="http://www.w3.org/2000/svg">
		<path fill-rule="evenodd" clip-rule="evenodd"
			d="M13.8125 29.0416C13.8125 28.0636 14.6053 27.2708 15.5833 27.2708H15.725C16.703 27.2708 17.4958 28.0636 17.4958 29.0416C17.4958 30.0197 16.703 30.8125 15.725 30.8125H15.5833C14.6053 30.8125 13.8125 30.0197 13.8125 29.0416ZM22.3125 29.0416C22.3125 28.0636 23.1053 27.2708 24.0833 27.2708H24.225C25.203 27.2708 25.9958 28.0636 25.9958 29.0416C25.9958 30.0197 25.203 30.8125 24.225 30.8125H24.0833C23.1053 30.8125 22.3125 30.0197 22.3125 29.0416Z" />
		<path fill-rule="evenodd" clip-rule="evenodd"
			d="M26.5004 6.08159C27.0537 6.63483 27.0537 7.53181 26.5004 8.08506L20.8338 13.7517C20.2805 14.305 19.3835 14.305 18.8303 13.7517L15.997 10.9184C15.4437 10.3651 15.4437 9.46816 15.997 8.91492C16.5502 8.36168 17.4472 8.36168 18.0004 8.91492L19.832 10.7465L24.497 6.08159C25.0502 5.52835 25.9472 5.52835 26.5004 6.08159Z" />
		<path fill-rule="evenodd" clip-rule="evenodd"
			d="M7.35102 2.83331C7.99891 2.82211 8.63131 3.03335 9.14257 3.43213C9.65835 3.83444 10.019 4.4028 10.1634 5.04073C10.1636 5.04173 10.1639 5.04273 10.1641 5.04373L13.8758 21.2504C13.8831 21.2502 13.8905 21.2501 13.8978 21.25C13.902 21.25 13.9062 21.25 13.9104 21.25H25.8387C25.8525 21.25 25.8662 21.2502 25.88 21.2506L28.3721 10.9987C28.5569 10.2384 29.3231 9.77192 30.0833 9.95673C30.8436 10.1415 31.3101 10.9077 31.1253 11.6679L28.6319 21.9246L28.6308 21.9294C28.4756 22.558 28.1099 23.1146 27.5944 23.5064C27.0853 23.8933 26.4604 24.0965 25.8216 24.0833H13.9247C13.2768 24.0945 12.6444 23.8833 12.1332 23.4845C11.6174 23.0822 11.2567 22.5138 11.1123 21.8759C11.1121 21.8749 11.1119 21.8739 11.1116 21.8729L7.39997 5.66622C7.38843 5.6665 7.3769 5.66664 7.36536 5.66664H4.2487C3.46629 5.66664 2.83203 5.03238 2.83203 4.24998C2.83203 3.46757 3.46629 2.83331 4.2487 2.83331H7.35102Z" />
	</symbol>

	<symbol id="delete-alt" xmlns="http://www.w3.org/2000/svg" width="24" height="24" viewBox="0 0 24 24">
		<path
			d="M4 7H20M16 7V4C16 3.73478 15.8946 3.48043 15.7071 3.29289C15.5196 3.10536 15.2652 3 15 3H9C8.73478 3 8.48043 3.10536 8.29289 3.29289C8.10536 3.48043 8 3.73478 8 4V7M10 11V17M14 11V17M18 20V7H6V20C6 20.2652 6.10536 20.5196 6.29289 20.7071C6.48043 20.8946 6.73478 21 7 21H17C17.2652 21 17.5196 20.8946 17.7071 20.7071C17.8946 20.5196 18 20.2652 18 20Z"
			stroke="#525354" stroke-width="2" stroke-linecap="round" stroke-linejoin="round" />
	</symbol>


</svg>