<svg>
	<symbol id="location-ico" xmlns="http://www.w3.org/2000/svg" width="24" height="24" viewBox="0 0 24 24" fill="none">
		<circle cx="12" cy="8" r="1.25" fill="#525354" />
		<path
			d="M15.93 18.64C15.9773 18.7541 16.0011 18.8765 16 19C16 20.1 14.21 21 12 21C9.79003 21 8.00003 20.1 8.00003 19C7.99897 18.8765 8.02278 18.7541 8.07003 18.64"
			stroke="#525354" stroke-width="2" stroke-linecap="round" stroke-linejoin="round" />
		<path
			d="M17 8C17 6.67392 16.4732 5.40215 15.5355 4.46447C14.5979 3.52678 13.3261 3 12 3C10.6739 3 9.40215 3.52678 8.46447 4.46447C7.52678 5.40215 7 6.67392 7 8C7 12 12 17 12 17C12 17 17 12 17 8Z"
			stroke="#525354" stroke-width="2" stroke-linecap="round" stroke-linejoin="round" />
	</symbol>

	<symbol id="arrow-ico" xmlns="http://www.w3.org/2000/svg" width="11" height="6" viewBox="0 0 11 6" fill="none">
		<path d="M10 1L5.5 5.5L1 1" stroke="#525354" stroke-linecap="round" stroke-linejoin="round" />
	</symbol>

	<symbol id="catalog-ico" xmlns="http://www.w3.org/2000/svg" width="24" height="25" viewBox="0 0 24 25">
		<path d="M5 12.5H19" stroke-width="2" stroke-linecap="round" stroke-linejoin="round" />
		<path d="M3 7.5H21M7 17.5H17" stroke-width="2" stroke-linecap="round" stroke-linejoin="round" />
	</symbol>

	<symbol id="search-ico" width="20" height="19" viewBox="0 0 20 19" fill="none" xmlns="http://www.w3.org/2000/svg">
		<path
			d="M19 19L14.66 14.66M17 9C17 10.5823 16.5308 12.129 15.6518 13.4446C14.7727 14.7602 13.5233 15.7855 12.0615 16.391C10.5997 16.9965 8.99113 17.155 7.43928 16.8463C5.88743 16.5376 4.46197 15.7757 3.34315 14.6569C2.22433 13.538 1.4624 12.1126 1.15372 10.5607C0.84504 9.00887 1.00347 7.40034 1.60897 5.93853C2.21447 4.47672 3.23985 3.22729 4.55544 2.34824C5.87103 1.46919 7.41775 1 9 1C11.1217 1 13.1566 1.84285 14.6569 3.34315C16.1571 4.84344 17 6.87827 17 9Z"
			stroke="url(#paint0_linear_211_3996)" stroke-width="2" stroke-linecap="round" stroke-linejoin="round" />
		<defs>
			<linearGradient id="paint0_linear_211_3996" x1="10" y1="1" x2="10" y2="19" gradientUnits="userSpaceOnUse">
				<stop stop-color="#FE6A2D" />
				<stop offset="1" stop-color="#FC4738" />
			</linearGradient>
		</defs>
	</symbol>


	<symbol id="cart-ico" xmlns="http://www.w3.org/2000/svg" width="34" height="34" viewBox="0 0 34 34" fill="none">
		<path d="M15.582 29.0417H15.7237M24.082 29.0417H24.2237" stroke="white" stroke-width="3.54167"
			stroke-linecap="round" stroke-linejoin="round" />
		<path d="M17 9.91668L19.8333 12.75L25.5 7.08334" stroke="white" stroke-width="2.83333" stroke-linecap="round"
			stroke-linejoin="round" />
		<path
			d="M4.25 4.25H7.36667C7.69415 4.24199 8.01428 4.34772 8.27257 4.54919C8.53087 4.75067 8.71136 5.03542 8.78333 5.355L12.495 21.5617C12.567 21.8812 12.7475 22.166 13.0058 22.3675C13.2641 22.5689 13.5842 22.6747 13.9117 22.6667H25.84C26.1636 22.6761 26.4807 22.5744 26.7385 22.3785C26.9962 22.1826 27.1791 21.9043 27.2567 21.59L29.75 11.3333"
			stroke="white" stroke-width="2.83333" stroke-linecap="round" stroke-linejoin="round" />
	</symbol>

	<symbol id="cart-ico-mob" xmlns="http://www.w3.org/2000/svg" width="24" height="24" viewBox="0 0 24 24" fill="none">
		<path d="M11 20.5H11.1M17 20.5H17.1" stroke="white" stroke-width="3.13777" stroke-linecap="round"
			stroke-linejoin="round" />
		<path d="M12 7L14 9L18 5" stroke="white" stroke-width="2.51022" stroke-linecap="round" stroke-linejoin="round" />
		<path
			d="M3 3.00005H5.2C5.43116 2.9944 5.65714 3.06904 5.83946 3.21125C6.02179 3.35347 6.1492 3.55447 6.2 3.78005L8.82 15.2201C8.8708 15.4456 8.99821 15.6466 9.18054 15.7889C9.36286 15.9311 9.58884 16.0057 9.82 16.0001H18.24C18.4684 16.0067 18.6923 15.9349 18.8742 15.7966C19.0562 15.6584 19.1852 15.4619 19.24 15.2401L21 8.00005"
			stroke="white" stroke-width="2.51022" stroke-linecap="round" stroke-linejoin="round" />
	</symbol>

	<symbol id="card-arrow" xmlns="http://www.w3.org/2000/svg" width="32" height="32" viewBox="0 0 32 32">
		<path
			d="M7.29327 23.2925C7.10573 23.4801 7 23.7348 7 24C7 24.2652 7.10536 24.5196 7.29289 24.7071C7.48043 24.8946 7.73478 25 8 25C8.26522 25 8.51957 24.8946 8.70711 24.7071L24.7071 8.70711C24.8946 8.51957 25 8.26522 25 8C25 7.73478 24.8946 7.48043 24.7071 7.29289C24.5196 7.10536 24.2652 7 24 7C23.9827 7 23.9655 7.00045 23.9483 7.00134C23.7013 7.01414 23.4678 7.11801 23.2929 7.29289L7.29327 23.2925Z" />
		<path
			d="M9 23V11C9 10.4477 8.55228 10 8 10C7.44772 10 7 10.4477 7 11V24C7 24.5523 7.44772 25 8 25H21C21.5523 25 22 24.5523 22 24C22 23.4477 21.5523 23 21 23H9Z" />
	</symbol>

	<symbol id="triangle" xmlns="http://www.w3.org/2000/svg" width="82" height="82" viewBox="0 0 82 82" fill="none">
		<path
			d="M74.6716 6.82843L6.82843 74.6716C4.30857 77.1914 6.09323 81.5 9.65685 81.5H77.5C79.7091 81.5 81.5 79.7091 81.5 77.5V9.65685C81.5 6.09324 77.1914 4.30857 74.6716 6.82843Z"
			fill="url(#paint0_linear_211_3581)" />
		<defs>
			<linearGradient id="paint0_linear_211_3581" x1="40.75" y1="0" x2="40.75" y2="81.5" gradientUnits="userSpaceOnUse">
				<stop stop-color="#FE6A2D" />
				<stop offset="1" stop-color="#FC4738" />
			</linearGradient>
		</defs>
	</symbol>


	<symbol id="shipping" xmlns="http://www.w3.org/2000/svg" width="24" height="24" viewBox="0 0 24 24" fill="none">
		<path
			d="M16 15V6C16 5.73478 15.8946 5.48043 15.7071 5.29289C15.5196 5.10536 15.2652 5 15 5H4C3.73478 5 3.48043 5.10536 3.29289 5.29289C3.10536 5.48043 3 5.73478 3 6V16C3 16.2652 3.10536 16.5196 3.29289 16.7071C3.48043 16.8946 3.73478 17 4 17H6"
			stroke="white" stroke-width="2" stroke-linecap="round" stroke-linejoin="round" />
		<path d="M14 17H10" stroke="white" stroke-width="2" stroke-linecap="round" stroke-linejoin="round" />
		<path
			d="M18 17H20C20.2652 17 20.5196 16.8947 20.7071 16.7071C20.8946 16.5196 21 16.2652 21 16V12L19.28 8.55002C19.1961 8.38359 19.0674 8.2439 18.9084 8.14672C18.7494 8.04954 18.5664 7.99873 18.38 8.00002H16"
			stroke="white" stroke-width="2" stroke-linecap="round" stroke-linejoin="round" />
		<path
			d="M10 17C10 17.3956 9.8827 17.7822 9.66294 18.1111C9.44318 18.44 9.13082 18.6964 8.76537 18.8478C8.39992 18.9991 7.99778 19.0387 7.60982 18.9616C7.22186 18.8844 6.86549 18.6939 6.58579 18.4142C6.30608 18.1345 6.1156 17.7781 6.03843 17.3902C5.96126 17.0022 6.00087 16.6001 6.15224 16.2346C6.30362 15.8692 6.55996 15.5568 6.88886 15.3371C7.21776 15.1173 7.60444 15 8 15C8.53043 15 9.03914 15.2107 9.41421 15.5858C9.78929 15.9609 10 16.4696 10 17ZM16 15C15.6044 15 15.2178 15.1173 14.8889 15.3371C14.56 15.5568 14.3036 15.8692 14.1522 16.2346C14.0009 16.6001 13.9613 17.0022 14.0384 17.3902C14.1156 17.7781 14.3061 18.1345 14.5858 18.4142C14.8655 18.6939 15.2219 18.8844 15.6098 18.9616C15.9978 19.0387 16.3999 18.9991 16.7654 18.8478C17.1308 18.6964 17.4432 18.44 17.6629 18.1111C17.8827 17.7822 18 17.3956 18 17C18 16.4696 17.7893 15.9609 17.4142 15.5858C17.0391 15.2107 16.5304 15 16 15Z"
			stroke="white" stroke-width="2" stroke-linecap="round" stroke-linejoin="round" />
	</symbol>

	<symbol id="whatsapp" width="30" height="30" viewBox="0 0 30 30" fill="none" xmlns="http://www.w3.org/2000/svg">
		<path
			d="M12.2283 8.99843L12.2287 8.9994C12.3899 9.35851 12.6559 10.0063 12.8672 10.521L12.8722 10.533C12.9559 10.7369 13.0312 10.9203 13.0899 11.0614C13.1193 11.132 13.1437 11.19 13.1624 11.2336C13.1762 11.2657 13.1839 11.2829 13.1869 11.2898C13.1886 11.2935 13.1889 11.2941 13.1881 11.2925C13.3191 11.5535 13.459 11.9909 13.2157 12.4894L12.2283 8.99843ZM12.2283 8.99843C12.0749 8.65784 11.8694 8.37454 11.5696 8.20076M12.2283 8.99843L11.5696 8.20076M21.6889 17.1588C21.567 16.9533 21.394 16.8328 21.2839 16.7656C21.179 16.7015 21.0572 16.6432 20.9616 16.5974C20.9561 16.5947 20.9506 16.5921 20.9453 16.5895C20.891 16.5635 20.8375 16.5379 20.7809 16.5097L20.7809 16.5097C20.6205 16.4299 20.1524 16.1999 19.6877 15.9762C19.244 15.7627 18.7447 15.5259 18.5596 15.4568L18.5595 15.4568L18.5502 15.4533C18.4172 15.4036 18.1393 15.2998 17.8323 15.3359C17.4416 15.382 17.1687 15.6183 16.9872 15.8923C16.8328 16.1194 16.4095 16.6214 16.1623 16.9105C16.1128 16.888 16.0605 16.8654 16.0125 16.8447L16.0003 16.8394L15.9986 16.8387C15.581 16.6585 14.7907 16.3176 13.8722 15.4998L13.8709 15.4987C13.1466 14.8568 12.6125 14.0721 12.3672 13.6761C12.4569 13.5789 12.5467 13.4703 12.6198 13.382L12.632 13.3672C12.6925 13.2941 12.7457 13.2299 12.7954 13.1728L12.7956 13.1726C12.9991 12.9389 13.0933 12.7434 13.1774 12.5687L13.1827 12.5576L13.1827 12.5576L13.2157 12.4895L21.0586 17.5327M21.6889 17.1588L21.0586 17.5327M21.6889 17.1588C21.6888 17.1587 21.6888 17.1586 21.6888 17.1585L21.0586 17.5327M21.6889 17.1588C21.8016 17.3487 21.8228 17.5624 21.8305 17.6608C21.8414 17.7984 21.8389 17.9531 21.825 18.1154C21.7971 18.4415 21.7191 18.8425 21.5682 19.2688L21.5664 19.2738C21.3484 19.8754 20.7877 20.3451 20.3286 20.6409C19.86 20.9427 19.2783 21.2022 18.8192 21.2453M21.0586 17.5327C21.1371 17.665 21.1371 18.2905 20.8773 19.0242C20.6115 19.7579 19.3305 20.4615 18.7504 20.5156M18.8192 21.2453L18.7504 20.5156M18.8192 21.2453C18.819 21.2453 18.8187 21.2453 18.8185 21.2453L18.7504 20.5156M18.8192 21.2453C18.7755 21.2494 18.7305 21.2548 18.6726 21.2618L18.5846 20.5342M18.7504 20.5156C18.6955 20.5208 18.6408 20.5274 18.5846 20.5342M11.7715 13.2387C11.6145 13.3949 11.4513 13.5634 11.6325 13.8761M11.7715 13.2387L20.4543 17.1658C20.1402 17.0094 18.5933 16.2517 18.3033 16.1434C18.0133 16.0352 17.8018 15.9871 17.5964 16.2998C17.3848 16.6125 16.7807 17.3161 16.5993 17.5267C16.4181 17.7372 16.2308 17.7612 15.9165 17.6049C15.8655 17.5794 15.7958 17.5494 15.7099 17.5123C15.2673 17.3214 14.3918 16.9436 13.3849 16.0472C12.4483 15.2172 11.8139 14.1888 11.6325 13.8761M11.7715 13.2387C11.8601 13.1504 11.9634 13.0256 12.0674 12.8999C12.1266 12.8285 12.1859 12.7567 12.2429 12.6913L11.7715 13.2387ZM11.6325 13.8761L12.1228 13.5918L12.1231 13.5916L12.2662 13.5086L12.2663 13.5087L12.1232 13.5917L12.1229 13.5919L11.6325 13.8761ZM18.5846 20.5342L18.6726 21.2618C18.3742 21.2979 17.9942 21.3421 17.3603 21.2358C16.7534 21.134 15.9304 20.8979 14.7055 20.4158M18.5846 20.5342C18.053 20.5985 17.3782 20.6802 14.9739 19.7338L14.7057 20.4158C14.7057 20.4158 14.7056 20.4158 14.7055 20.4158M14.7055 20.4158C11.5307 19.1672 9.47167 16.123 9.06161 15.5167L9.05347 15.5047L9.66047 15.094L9.05347 15.5047L9.01639 15.45L9.007 15.4365C9.00474 15.4332 9.00575 15.4348 9.00885 15.4389L14.7055 20.4158ZM11.5696 8.20076C11.2844 8.03545 11.0047 8.02871 10.8868 8.02587M11.5696 8.20076L10.8868 8.02587M10.8868 8.02587C10.8826 8.02577 10.8787 8.02567 10.8749 8.02557L10.8868 8.02587ZM9.23841 24.5441C9.07497 24.4556 8.88399 24.4324 8.70414 24.4794L3.48619 25.8423L4.87686 20.7944C4.92905 20.605 4.90297 20.4025 4.80449 20.2325C3.80351 18.5041 3.27708 16.5444 3.2778 14.55V14.5497C3.2778 8.28227 8.40853 3.17624 14.7081 3.17624C17.7712 3.17624 20.6368 4.36249 22.7954 6.51103C24.9532 8.65879 26.1386 11.515 26.1386 14.5557C26.1386 20.823 21.0078 25.929 14.7082 25.929H14.7022C12.7883 25.929 10.9081 25.4485 9.23841 24.5441ZM9.0024 15.4303L9.00249 15.4304L8.87164 8.64466C8.85733 8.66009 8.84087 8.67749 8.81954 8.70003L8.81954 8.70004C8.45379 9.08659 7.57636 10.0194 7.57636 11.7593C7.57636 12.6831 7.90663 13.5507 8.22804 14.1859C8.55439 14.8308 8.9044 15.2991 9.0024 15.4303ZM16.2302 16.9746C16.2783 16.9701 16.3084 16.9773 16.3111 16.978C16.3118 16.9782 16.2913 16.9728 16.2431 16.9487C16.243 16.9487 16.243 16.9487 16.243 16.9487L16.2301 16.9746L16.2302 16.9746Z"
			fill="white" stroke="white" stroke-width="1.46575" stroke-linejoin="round" />
	</symbol>


	<symbol id="vk" xmlns="http://www.w3.org/2000/svg" width="30" height="30" viewBox="0 0 30 30" fill="none">
		<path
			d="M26.828 22.6707H24.0412C22.9869 22.6707 22.6698 21.8169 20.7788 19.926C19.1285 18.3349 18.4314 18.1362 18.0131 18.1362C17.4362 18.1362 17.2777 18.2948 17.2777 19.0913V21.5973C17.2777 22.2753 17.058 22.6726 15.2874 22.6726C13.569 22.5571 11.9026 22.0351 10.4256 21.1494C8.94846 20.2638 7.7029 19.0399 6.79148 17.5785C4.62771 14.8853 3.12215 11.7244 2.39453 8.3472C2.39453 7.9289 2.55307 7.55071 3.34956 7.55071H6.13442C6.85069 7.55071 7.10855 7.86969 7.38933 8.60506C8.74165 12.5856 11.049 16.0466 11.9849 16.0466C12.344 16.0466 12.5006 15.8881 12.5006 14.9923V10.8933C12.3822 9.02337 11.389 8.86483 11.389 8.18867C11.4017 8.01033 11.4835 7.84397 11.6168 7.72487C11.7502 7.60577 11.9247 7.5433 12.1034 7.55071H16.4812C17.079 7.55071 17.2777 7.84868 17.2777 8.56495V14.0965C17.2777 14.6943 17.5356 14.893 17.7151 14.893C18.0742 14.893 18.3511 14.6943 19.0082 14.0373C20.4195 12.3162 21.5725 10.3988 22.431 8.3453C22.5188 8.09864 22.6848 7.88746 22.9038 7.74399C23.1228 7.60053 23.3827 7.53265 23.6439 7.55071H26.4307C27.2654 7.55071 27.443 7.96901 27.2654 8.56495C26.2521 10.8349 24.9983 12.9897 23.5255 14.9923C23.2256 15.4507 23.1053 15.6895 23.5255 16.2262C23.8025 16.6445 24.7785 17.4601 25.4355 18.2356C26.3904 19.188 27.1833 20.29 27.783 21.4979C28.0218 22.2734 27.6226 22.6707 26.828 22.6707Z"
			fill="white" />
	</symbol>

	<symbol id="ok" xmlns="http://www.w3.org/2000/svg" width="30" height="30" viewBox="0 0 30 30" fill="none">
		<path
			d="M14.7829 2.80566C11.3114 2.80566 8.45703 5.62145 8.45703 9.13155C8.45703 12.6416 11.2728 15.4574 14.7829 15.4574C18.293 15.4574 21.1088 12.6416 21.1088 9.13155C21.1088 5.62145 18.293 2.80566 14.7829 2.80566ZM14.7829 12.2752C13.0279 12.2752 11.62 10.8673 11.62 9.11226C11.62 7.35721 13.0279 5.96861 14.7829 5.96861C16.538 5.96861 17.9459 7.3765 17.9459 9.13155C17.9459 10.8673 16.538 12.2752 14.7829 12.2752Z"
			fill="white" />
		<path
			d="M24.0997 16.402C23.5404 15.3605 22.2289 14.9941 21.1874 15.592C16.8866 18.0028 12.7015 18.0028 8.40067 15.592C7.35921 14.9941 6.04775 15.3798 5.44988 16.4406C4.852 17.4627 5.23773 18.7935 6.29847 19.3528C7.70637 20.1628 9.21069 20.7607 10.7729 21.2043L7.72565 24.2515C6.87706 25.1001 6.87706 26.4501 7.72565 27.2601C8.53567 28.1087 9.88571 28.1087 10.7343 27.2601L14.7844 23.21L18.8345 27.2601C19.6445 28.1087 20.9946 28.1087 21.8432 27.2601C22.6918 26.4116 22.6918 25.0615 21.8432 24.2515L18.7959 21.2043C20.3581 20.7993 21.8625 20.1628 23.2704 19.3528C24.3118 18.7549 24.6975 17.4627 24.0997 16.402C24.0997 16.4406 24.0997 16.4406 24.0997 16.402Z"
			fill="white" />
	</symbol>


	<symbol id="telegram" xmlns="http://www.w3.org/2000/svg" width="30" height="30" viewBox="0 0 30 30" fill="none">
		<path fill-rule="evenodd" clip-rule="evenodd"
			d="M23.2594 24.392L23.2603 24.3899L23.2815 24.3368L26.9444 5.86941V5.80943C26.9444 5.3493 26.7744 4.94761 26.4045 4.70667C26.0806 4.49577 25.7084 4.48075 25.4474 4.50056C25.1713 4.52152 24.911 4.59043 24.7308 4.64779C24.638 4.6773 24.5604 4.70573 24.505 4.72724C24.4771 4.73803 24.4545 4.74719 24.4381 4.75401L24.422 4.7608L3.99938 12.7723L3.99376 12.7743C3.98273 12.7783 3.96814 12.7838 3.95053 12.7906C3.9154 12.8043 3.8676 12.8239 3.81143 12.8493C3.70116 12.8993 3.5488 12.9764 3.39428 13.0822C3.13185 13.2619 2.63213 13.6874 2.71651 14.3619C2.7864 14.9206 3.17153 15.2755 3.43118 15.4592C3.57036 15.5577 3.70352 15.6287 3.80102 15.6751C3.85043 15.6986 3.8924 15.7166 3.92365 15.7294C3.93932 15.7357 3.95242 15.7408 3.96256 15.7447L3.97554 15.7495L3.98383 15.7526L7.5569 16.9555C7.54484 17.1797 7.56708 17.4083 7.62653 17.6338L9.41632 24.4232C9.62853 25.2282 10.3568 25.7889 11.1893 25.7883C11.9355 25.7878 12.5974 25.3364 12.8785 24.6628L15.6728 21.675L20.4719 25.3543L20.5402 25.3841C20.9762 25.5744 21.3835 25.6347 21.756 25.5838C22.1279 25.533 22.4235 25.377 22.6455 25.1994C22.864 25.0246 23.0137 24.8273 23.1079 24.6788C23.1557 24.6034 23.1914 24.5371 23.2161 24.4871C23.2285 24.4621 23.2383 24.4409 23.2457 24.4243L23.2549 24.4031L23.2581 24.3952L23.2594 24.392ZM9.39813 17.1667C9.35746 17.0124 9.42132 16.8495 9.55603 16.764L21.6754 9.06768C21.6754 9.06768 22.3882 8.63492 22.3627 9.06768C22.3627 9.06768 22.49 9.1441 22.108 9.50044C21.7457 9.83887 13.4702 17.8285 12.6328 18.637C12.5845 18.6837 12.5557 18.7372 12.5386 18.8022L11.1879 23.9561L9.39813 17.1667Z"
			fill="white" />
	</symbol>


</svg>