<svg>
	<symbol id="location-ico" xmlns="http://www.w3.org/2000/svg" width="24" height="24" viewBox="0 0 24 24" fill="none">
		<circle cx="12" cy="8" r="1.25" fill="#525354" />
		<path
			d="M15.93 18.64C15.9773 18.7541 16.0011 18.8765 16 19C16 20.1 14.21 21 12 21C9.79003 21 8.00003 20.1 8.00003 19C7.99897 18.8765 8.02278 18.7541 8.07003 18.64"
			stroke="#525354" stroke-width="2" stroke-linecap="round" stroke-linejoin="round" />
		<path
			d="M17 8C17 6.67392 16.4732 5.40215 15.5355 4.46447C14.5979 3.52678 13.3261 3 12 3C10.6739 3 9.40215 3.52678 8.46447 4.46447C7.52678 5.40215 7 6.67392 7 8C7 12 12 17 12 17C12 17 17 12 17 8Z"
			stroke="#525354" stroke-width="2" stroke-linecap="round" stroke-linejoin="round" />
	</symbol>

	<symbol id="arrow-ico" xmlns="http://www.w3.org/2000/svg" width="11" height="6" viewBox="0 0 11 6" fill="none">
		<path d="M10 1L5.5 5.5L1 1" stroke="#525354" stroke-linecap="round" stroke-linejoin="round" />
	</symbol>

	<symbol id="catalog-ico" xmlns="http://www.w3.org/2000/svg" width="24" height="25" viewBox="0 0 24 25">
		<path d="M5 12.5H19" stroke-width="2" stroke-linecap="round" stroke-linejoin="round" />
		<path d="M3 7.5H21M7 17.5H17" stroke-width="2" stroke-linecap="round" stroke-linejoin="round" />
	</symbol>

	<symbol id="search-ico" width="20" height="19" viewBox="0 0 20 19" fill="none" xmlns="http://www.w3.org/2000/svg">
		<path
			d="M19 19L14.66 14.66M17 9C17 10.5823 16.5308 12.129 15.6518 13.4446C14.7727 14.7602 13.5233 15.7855 12.0615 16.391C10.5997 16.9965 8.99113 17.155 7.43928 16.8463C5.88743 16.5376 4.46197 15.7757 3.34315 14.6569C2.22433 13.538 1.4624 12.1126 1.15372 10.5607C0.84504 9.00887 1.00347 7.40034 1.60897 5.93853C2.21447 4.47672 3.23985 3.22729 4.55544 2.34824C5.87103 1.46919 7.41775 1 9 1C11.1217 1 13.1566 1.84285 14.6569 3.34315C16.1571 4.84344 17 6.87827 17 9Z"
			stroke="url(#paint0_linear_211_3996)" stroke-width="2" stroke-linecap="round" stroke-linejoin="round" />
		<defs>
			<linearGradient id="paint0_linear_211_3996" x1="10" y1="1" x2="10" y2="19" gradientUnits="userSpaceOnUse">
				<stop stop-color="#FE6A2D" />
				<stop offset="1" stop-color="#FC4738" />
			</linearGradient>
		</defs>
	</symbol>


	<symbol id="cart-ico" xmlns="http://www.w3.org/2000/svg" width="34" height="34" viewBox="0 0 34 34" fill="none">
		<path d="M15.582 29.0417H15.7237M24.082 29.0417H24.2237" stroke="white" stroke-width="3.54167"
			stroke-linecap="round" stroke-linejoin="round" />
		<path d="M17 9.91668L19.8333 12.75L25.5 7.08334" stroke="white" stroke-width="2.83333" stroke-linecap="round"
			stroke-linejoin="round" />
		<path
			d="M4.25 4.25H7.36667C7.69415 4.24199 8.01428 4.34772 8.27257 4.54919C8.53087 4.75067 8.71136 5.03542 8.78333 5.355L12.495 21.5617C12.567 21.8812 12.7475 22.166 13.0058 22.3675C13.2641 22.5689 13.5842 22.6747 13.9117 22.6667H25.84C26.1636 22.6761 26.4807 22.5744 26.7385 22.3785C26.9962 22.1826 27.1791 21.9043 27.2567 21.59L29.75 11.3333"
			stroke="white" stroke-width="2.83333" stroke-linecap="round" stroke-linejoin="round" />
	</symbol>

	<symbol id="cart-ico-mob" xmlns="http://www.w3.org/2000/svg" width="24" height="24" viewBox="0 0 24 24" fill="none">
		<path d="M11 20.5H11.1M17 20.5H17.1" stroke="white" stroke-width="3.13777" stroke-linecap="round"
			stroke-linejoin="round" />
		<path d="M12 7L14 9L18 5" stroke="white" stroke-width="2.51022" stroke-linecap="round" stroke-linejoin="round" />
		<path
			d="M3 3.00005H5.2C5.43116 2.9944 5.65714 3.06904 5.83946 3.21125C6.02179 3.35347 6.1492 3.55447 6.2 3.78005L8.82 15.2201C8.8708 15.4456 8.99821 15.6466 9.18054 15.7889C9.36286 15.9311 9.58884 16.0057 9.82 16.0001H18.24C18.4684 16.0067 18.6923 15.9349 18.8742 15.7966C19.0562 15.6584 19.1852 15.4619 19.24 15.2401L21 8.00005"
			stroke="white" stroke-width="2.51022" stroke-linecap="round" stroke-linejoin="round" />
	</symbol>

	<symbol id="card-arrow" xmlns="http://www.w3.org/2000/svg" width="32" height="32" viewBox="0 0 32 32">
		<path
			d="M7.29327 23.2925C7.10573 23.4801 7 23.7348 7 24C7 24.2652 7.10536 24.5196 7.29289 24.7071C7.48043 24.8946 7.73478 25 8 25C8.26522 25 8.51957 24.8946 8.70711 24.7071L24.7071 8.70711C24.8946 8.51957 25 8.26522 25 8C25 7.73478 24.8946 7.48043 24.7071 7.29289C24.5196 7.10536 24.2652 7 24 7C23.9827 7 23.9655 7.00045 23.9483 7.00134C23.7013 7.01414 23.4678 7.11801 23.2929 7.29289L7.29327 23.2925Z" />
		<path
			d="M9 23V11C9 10.4477 8.55228 10 8 10C7.44772 10 7 10.4477 7 11V24C7 24.5523 7.44772 25 8 25H21C21.5523 25 22 24.5523 22 24C22 23.4477 21.5523 23 21 23H9Z" />
	</symbol>

	<symbol id="triangle" xmlns="http://www.w3.org/2000/svg" width="82" height="82" viewBox="0 0 82 82" fill="none">
		<path
			d="M74.6716 6.82843L6.82843 74.6716C4.30857 77.1914 6.09323 81.5 9.65685 81.5H77.5C79.7091 81.5 81.5 79.7091 81.5 77.5V9.65685C81.5 6.09324 77.1914 4.30857 74.6716 6.82843Z"
			fill="url(#paint0_linear_211_3581)" />
		<defs>
			<linearGradient id="paint0_linear_211_3581" x1="40.75" y1="0" x2="40.75" y2="81.5" gradientUnits="userSpaceOnUse">
				<stop stop-color="#FE6A2D" />
				<stop offset="1" stop-color="#FC4738" />
			</linearGradient>
		</defs>
	</symbol>


	<symbol id="shipping" xmlns="http://www.w3.org/2000/svg" width="24" height="24" viewBox="0 0 24 24" fill="none">
		<path
			d="M16 15V6C16 5.73478 15.8946 5.48043 15.7071 5.29289C15.5196 5.10536 15.2652 5 15 5H4C3.73478 5 3.48043 5.10536 3.29289 5.29289C3.10536 5.48043 3 5.73478 3 6V16C3 16.2652 3.10536 16.5196 3.29289 16.7071C3.48043 16.8946 3.73478 17 4 17H6"
			stroke="white" stroke-width="2" stroke-linecap="round" stroke-linejoin="round" />
		<path d="M14 17H10" stroke="white" stroke-width="2" stroke-linecap="round" stroke-linejoin="round" />
		<path
			d="M18 17H20C20.2652 17 20.5196 16.8947 20.7071 16.7071C20.8946 16.5196 21 16.2652 21 16V12L19.28 8.55002C19.1961 8.38359 19.0674 8.2439 18.9084 8.14672C18.7494 8.04954 18.5664 7.99873 18.38 8.00002H16"
			stroke="white" stroke-width="2" stroke-linecap="round" stroke-linejoin="round" />
		<path
			d="M10 17C10 17.3956 9.8827 17.7822 9.66294 18.1111C9.44318 18.44 9.13082 18.6964 8.76537 18.8478C8.39992 18.9991 7.99778 19.0387 7.60982 18.9616C7.22186 18.8844 6.86549 18.6939 6.58579 18.4142C6.30608 18.1345 6.1156 17.7781 6.03843 17.3902C5.96126 17.0022 6.00087 16.6001 6.15224 16.2346C6.30362 15.8692 6.55996 15.5568 6.88886 15.3371C7.21776 15.1173 7.60444 15 8 15C8.53043 15 9.03914 15.2107 9.41421 15.5858C9.78929 15.9609 10 16.4696 10 17ZM16 15C15.6044 15 15.2178 15.1173 14.8889 15.3371C14.56 15.5568 14.3036 15.8692 14.1522 16.2346C14.0009 16.6001 13.9613 17.0022 14.0384 17.3902C14.1156 17.7781 14.3061 18.1345 14.5858 18.4142C14.8655 18.6939 15.2219 18.8844 15.6098 18.9616C15.9978 19.0387 16.3999 18.9991 16.7654 18.8478C17.1308 18.6964 17.4432 18.44 17.6629 18.1111C17.8827 17.7822 18 17.3956 18 17C18 16.4696 17.7893 15.9609 17.4142 15.5858C17.0391 15.2107 16.5304 15 16 15Z"
			stroke="white" stroke-width="2" stroke-linecap="round" stroke-linejoin="round" />
	</symbol>

	<symbol id="whatsapp" xmlns="http://www.w3.org/2000/svg" width="30" height="30" viewBox="0 0 30 30" fill="none">
		<mask id="path-1-inside-1_211_4087" fill="white">
			<path fill-rule="evenodd" clip-rule="evenodd"
				d="M2.66716 26.2747C2.56722 26.6375 2.89761 26.9723 3.26167 26.8772L8.88935 25.4073C10.6658 26.3695 12.6658 26.8807 14.7022 26.8807H14.7082C21.4091 26.8807 26.8714 21.45 26.8714 14.7744C26.8714 11.5389 25.6085 8.49573 23.3124 6.21034C21.0164 3.92506 17.965 2.66211 14.7081 2.66211C8.00726 2.66211 2.54492 8.09279 2.54492 14.7684C2.54416 16.8921 3.10471 18.9786 4.1703 20.8185L2.66716 26.2747ZM10.8531 8.97688C11.0766 8.98287 11.3244 8.99495 11.5601 9.51821C11.7164 9.86654 11.9797 10.5078 12.1942 11.0302C12.3611 11.4367 12.4985 11.7712 12.5329 11.8396C12.6114 11.996 12.6598 12.1764 12.557 12.3868C12.5449 12.4117 12.5335 12.4354 12.5225 12.4583C12.4401 12.6293 12.3814 12.751 12.2429 12.9101C12.1859 12.9755 12.1266 13.0472 12.0674 13.1187C11.9634 13.2443 11.8601 13.3692 11.7715 13.4574C11.6145 13.6136 11.4513 13.7822 11.6325 14.0949C11.8139 14.4076 12.4483 15.436 13.3849 16.2659C14.3918 17.1624 15.2673 17.5401 15.7099 17.7311C15.7958 17.7682 15.8655 17.7982 15.9165 17.8236C16.2308 17.98 16.4181 17.9559 16.5993 17.7454C16.7807 17.5349 17.3848 16.8312 17.5964 16.5185C17.8018 16.2058 18.0133 16.254 18.3033 16.3622C18.5933 16.4704 20.1402 17.2282 20.4543 17.3845C20.5164 17.4154 20.5745 17.4433 20.6284 17.4691C20.847 17.574 20.9956 17.6452 21.0586 17.7514C21.1371 17.8837 21.1371 18.5092 20.8773 19.2429C20.6115 19.9766 19.3305 20.6803 18.7504 20.7344C18.6955 20.7396 18.6408 20.7462 18.5846 20.753C18.053 20.8173 17.3782 20.8989 14.9739 19.9526C12.0114 18.7876 10.0558 15.8971 9.66047 15.3127C9.62926 15.2666 9.60777 15.2348 9.59628 15.2194L9.58959 15.2105C9.40971 14.9698 8.30923 13.4973 8.30923 11.978C8.30923 10.5244 9.02528 9.76767 9.35188 9.42249C9.37258 9.40062 9.39172 9.3804 9.40901 9.36175C9.69899 9.04906 10.0374 8.97089 10.2489 8.97089C10.4604 8.97089 10.6719 8.97089 10.8531 8.97688Z" />
		</mask>
		<path fill-rule="evenodd" clip-rule="evenodd"
			d="M2.66716 26.2747C2.56722 26.6375 2.89761 26.9723 3.26167 26.8772L8.88935 25.4073C10.6658 26.3695 12.6658 26.8807 14.7022 26.8807H14.7082C21.4091 26.8807 26.8714 21.45 26.8714 14.7744C26.8714 11.5389 25.6085 8.49573 23.3124 6.21034C21.0164 3.92506 17.965 2.66211 14.7081 2.66211C8.00726 2.66211 2.54492 8.09279 2.54492 14.7684C2.54416 16.8921 3.10471 18.9786 4.1703 20.8185L2.66716 26.2747ZM10.8531 8.97688C11.0766 8.98287 11.3244 8.99495 11.5601 9.51821C11.7164 9.86654 11.9797 10.5078 12.1942 11.0302C12.3611 11.4367 12.4985 11.7712 12.5329 11.8396C12.6114 11.996 12.6598 12.1764 12.557 12.3868C12.5449 12.4117 12.5335 12.4354 12.5225 12.4583C12.4401 12.6293 12.3814 12.751 12.2429 12.9101C12.1859 12.9755 12.1266 13.0472 12.0674 13.1187C11.9634 13.2443 11.8601 13.3692 11.7715 13.4574C11.6145 13.6136 11.4513 13.7822 11.6325 14.0949C11.8139 14.4076 12.4483 15.436 13.3849 16.2659C14.3918 17.1624 15.2673 17.5401 15.7099 17.7311C15.7958 17.7682 15.8655 17.7982 15.9165 17.8236C16.2308 17.98 16.4181 17.9559 16.5993 17.7454C16.7807 17.5349 17.3848 16.8312 17.5964 16.5185C17.8018 16.2058 18.0133 16.254 18.3033 16.3622C18.5933 16.4704 20.1402 17.2282 20.4543 17.3845C20.5164 17.4154 20.5745 17.4433 20.6284 17.4691C20.847 17.574 20.9956 17.6452 21.0586 17.7514C21.1371 17.8837 21.1371 18.5092 20.8773 19.2429C20.6115 19.9766 19.3305 20.6803 18.7504 20.7344C18.6955 20.7396 18.6408 20.7462 18.5846 20.753C18.053 20.8173 17.3782 20.8989 14.9739 19.9526C12.0114 18.7876 10.0558 15.8971 9.66047 15.3127C9.62926 15.2666 9.60777 15.2348 9.59628 15.2194L9.58959 15.2105C9.40971 14.9698 8.30923 13.4973 8.30923 11.978C8.30923 10.5244 9.02528 9.76767 9.35188 9.42249C9.37258 9.40062 9.39172 9.3804 9.40901 9.36175C9.69899 9.04906 10.0374 8.97089 10.2489 8.97089C10.4604 8.97089 10.6719 8.97089 10.8531 8.97688Z"
			fill="white" />
		<path
			d="M3.26167 26.8772L3.63209 28.2954H3.63209L3.26167 26.8772ZM2.66716 26.2747L1.25405 25.8854H1.25405L2.66716 26.2747ZM8.88935 25.4073L9.58747 24.1184C9.26058 23.9414 8.87862 23.8951 8.51893 23.9891L8.88935 25.4073ZM23.3124 6.21034L24.3465 5.17149L24.3464 5.17147L23.3124 6.21034ZM2.54492 14.7684L4.01068 14.769V14.7684H2.54492ZM4.1703 20.8185L5.58341 21.2078C5.68779 20.8289 5.63565 20.424 5.43868 20.0839L4.1703 20.8185ZM11.5601 9.51821L12.8974 8.9181L12.8965 8.91615L11.5601 9.51821ZM10.8531 8.97688L10.8047 10.4419L10.8139 10.4421L10.8531 8.97688ZM12.1942 11.0302L10.8383 11.5869L10.8383 11.5869L12.1942 11.0302ZM12.5329 11.8396L11.2229 12.4973L11.2231 12.4976L12.5329 11.8396ZM12.557 12.3868L11.2398 11.744L11.2397 11.7442L12.557 12.3868ZM12.5225 12.4583L13.8429 13.0945L13.843 13.0945L12.5225 12.4583ZM12.2429 12.9101L13.348 13.873L13.3483 13.8726L12.2429 12.9101ZM12.0674 13.1187L13.1967 14.0531L13.1967 14.0531L12.0674 13.1187ZM11.7715 13.4574L12.8052 14.4966L12.8059 14.4959L11.7715 13.4574ZM11.6325 14.0949L10.3644 14.8299L10.3646 14.8303L11.6325 14.0949ZM13.3849 16.2659L14.3595 15.1712L14.357 15.1689L13.3849 16.2659ZM15.7099 17.7311L15.1292 19.0769L15.1292 19.0769L15.7099 17.7311ZM15.9165 17.8236L15.2635 19.1359L15.2637 19.1359L15.9165 17.8236ZM16.5993 17.7454L15.4887 16.7889L15.4887 16.7889L16.5993 17.7454ZM17.5964 16.5185L18.8104 17.3399C18.8141 17.3344 18.8178 17.3289 18.8214 17.3233L17.5964 16.5185ZM18.3033 16.3622L18.8158 14.9889L18.8157 14.9889L18.3033 16.3622ZM20.4543 17.3845L21.1076 16.0724L21.1074 16.0723L20.4543 17.3845ZM20.6284 17.4691L21.2621 16.1475L21.2621 16.1475L20.6284 17.4691ZM21.0586 17.7514L19.798 18.4993L19.7982 18.4997L21.0586 17.7514ZM20.8773 19.2429L22.2555 19.7422L22.259 19.7321L20.8773 19.2429ZM18.7504 20.7344L18.6143 19.275L18.6128 19.2751L18.7504 20.7344ZM18.5846 20.753L18.7606 22.2081H18.7606L18.5846 20.753ZM14.9739 19.9526L15.5108 18.5887L15.5104 18.5885L14.9739 19.9526ZM9.66047 15.3127L8.44646 16.1341L8.44647 16.1341L9.66047 15.3127ZM9.59628 15.2194L10.7711 14.343L10.7705 14.3421L9.59628 15.2194ZM9.58959 15.2105L10.7638 14.3332L10.7637 14.333L9.58959 15.2105ZM9.35188 9.42249L8.2872 8.41508L8.28719 8.41509L9.35188 9.42249ZM9.40901 9.36175L10.4837 10.3585L10.4837 10.3584L9.40901 9.36175ZM2.89125 25.459C3.61935 25.2688 4.28014 25.9385 4.08027 26.664L1.25405 25.8854C0.854305 27.3364 2.17587 28.6757 3.63209 28.2954L2.89125 25.459ZM8.51893 23.9891L2.89125 25.459L3.63209 28.2954L9.25978 26.8254L8.51893 23.9891ZM14.7022 25.4149C12.9107 25.4149 11.1505 24.9651 9.58747 24.1184L8.19124 26.6961C10.1811 27.7739 12.4209 28.3464 14.7022 28.3464V25.4149ZM14.7082 25.4149H14.7022V28.3464H14.7082V25.4149ZM25.4057 14.7744C25.4057 20.6335 20.6066 25.4149 14.7082 25.4149V28.3464C22.2116 28.3464 28.3372 22.2665 28.3372 14.7744H25.4057ZM22.2784 7.24919C24.2979 9.25932 25.4057 11.9285 25.4057 14.7744H28.3372C28.3372 11.1492 26.919 7.73215 24.3465 5.17149L22.2784 7.24919ZM14.7081 4.12786C17.5775 4.12786 20.2572 5.23741 22.2784 7.24921L24.3464 5.17147C21.7756 2.6127 18.3524 1.19636 14.7081 1.19636V4.12786ZM4.01068 14.7684C4.01068 8.90925 8.80981 4.12786 14.7081 4.12786V1.19636C7.20471 1.19636 1.07917 7.27633 1.07917 14.7684H4.01068ZM5.43868 20.0839C4.50231 18.4671 4.01001 16.6342 4.01068 14.769L1.07917 14.7679C1.07832 17.1501 1.70711 19.4901 2.90192 21.5531L5.43868 20.0839ZM4.08027 26.664L5.58341 21.2078L2.75719 20.4292L1.25405 25.8854L4.08027 26.664ZM12.8965 8.91615C12.7075 8.49661 12.4174 8.06384 11.9371 7.78545C11.462 7.5101 10.9974 7.51447 10.8924 7.51165L10.8139 10.4421C10.9323 10.4453 10.7033 10.4587 10.467 10.3217C10.2254 10.1816 10.177 10.0166 10.2237 10.1203L12.8965 8.91615ZM13.5501 10.4734C13.3404 9.96265 13.0659 9.29359 12.8974 8.9181L10.2228 10.1183C10.3669 10.4395 10.6191 11.053 10.8383 11.5869L13.5501 10.4734ZM13.8428 11.182C13.8572 11.2107 13.8592 11.2176 13.8359 11.1633C13.8187 11.1234 13.7955 11.0683 13.7665 10.9986C13.7086 10.8595 13.6341 10.6778 13.5501 10.4734L10.8383 11.5869C10.9839 11.9414 11.1556 12.3632 11.2229 12.4973L13.8428 11.182ZM13.8743 13.0297C14.2586 12.2424 14.0263 11.5473 13.8427 11.1817L11.2231 12.4976C11.2186 12.4886 11.1698 12.3924 11.1544 12.2383C11.1368 12.0621 11.1702 11.8865 11.2398 11.744L13.8743 13.0297ZM13.843 13.0945C13.8541 13.0713 13.8641 13.0506 13.8744 13.0295L11.2397 11.7442C11.2258 11.7727 11.2129 11.7995 11.202 11.822L13.843 13.0945ZM13.3483 13.8726C13.6254 13.5544 13.7543 13.2784 13.8429 13.0945L11.202 11.822C11.1801 11.8676 11.1676 11.8933 11.1564 11.9155C11.1464 11.9352 11.1421 11.9426 11.1412 11.944C11.1409 11.9445 11.1423 11.9422 11.1442 11.9395C11.1459 11.9372 11.1445 11.9394 11.1374 11.9476L13.3483 13.8726ZM13.1967 14.0531C13.2584 13.9786 13.3055 13.9217 13.348 13.873L11.1378 11.9472C11.0663 12.0292 10.9947 12.1159 10.9382 12.1842L13.1967 14.0531ZM12.8059 14.4959C12.9555 14.3469 13.1087 14.1595 13.1967 14.0531L10.9382 12.1842C10.8182 12.3292 10.7647 12.3915 10.7371 12.4189L12.8059 14.4959ZM12.9006 13.3598C12.9309 13.4121 12.9886 13.5302 13.0102 13.7045C13.0333 13.8899 13.0073 14.0729 12.9476 14.2321C12.8931 14.3775 12.8232 14.4693 12.797 14.5016C12.7751 14.5286 12.7609 14.5407 12.8052 14.4966L10.7379 12.4182C10.6997 12.4562 10.3712 12.7536 10.2027 13.2028C9.98141 13.793 10.0992 14.3725 10.3644 14.8299L12.9006 13.3598ZM14.357 15.1689C13.5948 14.4935 13.0537 13.6237 12.9004 13.3595L10.3646 14.8303C10.5741 15.1914 11.3019 16.3785 12.4128 17.3629L14.357 15.1689ZM16.2906 16.3853C15.8989 16.2163 15.1922 15.9125 14.3595 15.1712L12.4102 17.3607C13.5914 18.4122 14.6358 18.864 15.1292 19.0769L16.2906 16.3853ZM16.5696 16.5114C16.4743 16.4639 16.3611 16.4157 16.2906 16.3853L15.1292 19.0769C15.1741 19.0963 15.2056 19.1099 15.2318 19.1215C15.2589 19.1335 15.2664 19.1373 15.2635 19.1359L16.5696 16.5114ZM15.4887 16.7889C15.5466 16.7217 15.7626 16.5103 16.1368 16.4663C16.4463 16.43 16.6302 16.5415 16.5694 16.5113L15.2637 19.1359C15.5172 19.2621 15.9518 19.4397 16.4789 19.3778C17.0706 19.3083 17.4708 18.9796 17.71 18.702L15.4887 16.7889ZM16.3824 15.6972C16.323 15.7849 16.1649 15.9855 15.9583 16.2346C15.7672 16.465 15.5781 16.6852 15.4887 16.7889L17.7099 18.702C17.8608 18.5269 18.5384 17.7419 18.8104 17.3399L16.3824 15.6972ZM18.8157 14.9889C18.7026 14.9467 18.2604 14.7663 17.7466 14.8268C17.075 14.906 16.6315 15.3177 16.3713 15.7137L18.8214 17.3233C18.8029 17.3515 18.7357 17.4467 18.6008 17.5425C18.4519 17.6481 18.2736 17.7165 18.0897 17.7382C17.9238 17.7577 17.8042 17.7332 17.7674 17.7246C17.7349 17.7171 17.7295 17.7125 17.791 17.7355L18.8157 14.9889ZM21.1074 16.0723C20.9438 15.9909 20.4727 15.7595 20.0055 15.5346C19.5805 15.33 19.0411 15.073 18.8158 14.9889L17.7909 17.7354C17.782 17.7321 17.8028 17.74 17.8712 17.7704C17.9311 17.797 18.0081 17.8321 18.0994 17.8746C18.2816 17.9594 18.5054 18.066 18.734 18.176C19.1913 18.3961 19.6507 18.6218 19.8013 18.6968L21.1074 16.0723ZM21.2621 16.1475C21.2074 16.1212 21.1586 16.0978 21.1076 16.0724L19.8011 18.6967C19.8743 18.7331 19.9416 18.7654 19.9946 18.7908L21.2621 16.1475ZM22.3192 17.0036C22.1069 16.6457 21.8138 16.4492 21.6659 16.3589C21.5163 16.2675 21.3484 16.1888 21.2621 16.1475L19.9946 18.7908C20.0527 18.8186 20.0883 18.8358 20.1176 18.8506C20.1467 18.8653 20.1489 18.8674 20.1377 18.8606C20.1271 18.8541 20.0815 18.8258 20.0226 18.7736C19.9614 18.7192 19.8754 18.6298 19.798 18.4993L22.3192 17.0036ZM22.259 19.7321C22.431 19.2465 22.5221 18.7842 22.5552 18.3967C22.5717 18.2045 22.5758 18.0084 22.5612 17.822C22.5526 17.7137 22.5249 17.3501 22.3189 17.0031L19.7982 18.4997C19.7414 18.404 19.7084 18.3215 19.6904 18.2704C19.6713 18.2165 19.6602 18.1729 19.6539 18.1447C19.6416 18.0901 19.639 18.0562 19.6387 18.0522C19.638 18.0432 19.6406 18.0742 19.6344 18.1466C19.6223 18.2883 19.5835 18.5056 19.4956 18.7537L22.259 19.7321ZM18.8866 22.1938C19.515 22.1352 20.2138 21.8053 20.7254 21.4757C21.2178 21.1586 21.9525 20.5784 22.2554 19.7422L19.4992 18.7436C19.5295 18.6599 19.5502 18.6676 19.4674 18.7521C19.394 18.8271 19.2815 18.9188 19.138 19.0112C18.9963 19.1025 18.8516 19.1769 18.7304 19.227C18.5902 19.2849 18.554 19.2806 18.6143 19.275L18.8866 22.1938ZM18.7606 22.2081C18.8202 22.2009 18.8556 22.1967 18.888 22.1937L18.6128 19.2751C18.5354 19.2824 18.4615 19.2914 18.4086 19.2978L18.7606 22.2081ZM14.4371 21.3165C15.6847 21.8075 16.5611 22.0636 17.2391 22.1773C17.9711 22.3001 18.4295 22.2482 18.7606 22.2081L18.4086 19.2978C18.2081 19.3221 18.0633 19.3431 17.724 19.2862C17.3306 19.2202 16.6674 19.0439 15.5108 18.5887L14.4371 21.3165ZM8.44647 16.1341C8.83155 16.7033 11.007 19.9676 14.4375 21.3166L15.5104 18.5885C13.0159 17.6075 11.2801 15.091 10.8745 14.4914L8.44647 16.1341ZM8.42142 16.0959C8.4164 16.0891 8.41271 16.0841 8.41078 16.0814C8.40874 16.0785 8.40749 16.0767 8.40722 16.0764C8.40687 16.0759 8.40813 16.0777 8.4118 16.083C8.41954 16.0943 8.42998 16.1097 8.44646 16.1341L10.8745 14.4914C10.8565 14.4648 10.8087 14.3934 10.7711 14.343L8.42142 16.0959ZM8.41539 16.0878L8.42208 16.0968L10.7705 14.3421L10.7638 14.3332L8.41539 16.0878ZM6.84348 11.978C6.84348 13.0661 7.22891 14.0533 7.57411 14.7355C7.92951 15.4379 8.30979 15.9465 8.41549 16.0879L10.7637 14.333C10.6895 14.2338 10.4296 13.8858 10.1898 13.4119C9.9398 12.9179 9.77499 12.4092 9.77499 11.978H6.84348ZM8.28719 8.41509C7.88229 8.84301 6.84348 9.95189 6.84348 11.978H9.77499C9.77499 11.5063 9.88777 11.1884 10.0027 10.972C10.1236 10.7442 10.266 10.5891 10.4166 10.4299L8.28719 8.41509ZM8.33429 8.36505C8.32296 8.37727 8.30917 8.39186 8.2872 8.41508L10.4166 10.4299C10.436 10.4094 10.4605 10.3835 10.4837 10.3585L8.33429 8.36505ZM10.2489 7.50514C9.70185 7.50514 8.94726 7.70409 8.33428 8.36506L10.4837 10.3584C10.4724 10.3706 10.4443 10.3935 10.4005 10.4109C10.3636 10.4256 10.3158 10.4366 10.2489 10.4366V7.50514ZM10.9015 7.51193C10.6912 7.50498 10.4537 7.50514 10.2489 7.50514V10.4366C10.4672 10.4366 10.6525 10.4368 10.8047 10.4418L10.9015 7.51193Z"
			fill="white" mask="url(#path-1-inside-1_211_4087)" />
	</symbol>


	<symbol id="vk" xmlns="http://www.w3.org/2000/svg" width="30" height="30" viewBox="0 0 30 30" fill="none">
		<path
			d="M26.828 22.6707H24.0412C22.9869 22.6707 22.6698 21.8169 20.7788 19.926C19.1285 18.3349 18.4314 18.1362 18.0131 18.1362C17.4362 18.1362 17.2777 18.2948 17.2777 19.0913V21.5973C17.2777 22.2753 17.058 22.6726 15.2874 22.6726C13.569 22.5571 11.9026 22.0351 10.4256 21.1494C8.94846 20.2638 7.7029 19.0399 6.79148 17.5785C4.62771 14.8853 3.12215 11.7244 2.39453 8.3472C2.39453 7.9289 2.55307 7.55071 3.34956 7.55071H6.13442C6.85069 7.55071 7.10855 7.86969 7.38933 8.60506C8.74165 12.5856 11.049 16.0466 11.9849 16.0466C12.344 16.0466 12.5006 15.8881 12.5006 14.9923V10.8933C12.3822 9.02337 11.389 8.86483 11.389 8.18867C11.4017 8.01033 11.4835 7.84397 11.6168 7.72487C11.7502 7.60577 11.9247 7.5433 12.1034 7.55071H16.4812C17.079 7.55071 17.2777 7.84868 17.2777 8.56495V14.0965C17.2777 14.6943 17.5356 14.893 17.7151 14.893C18.0742 14.893 18.3511 14.6943 19.0082 14.0373C20.4195 12.3162 21.5725 10.3988 22.431 8.3453C22.5188 8.09864 22.6848 7.88746 22.9038 7.74399C23.1228 7.60053 23.3827 7.53265 23.6439 7.55071H26.4307C27.2654 7.55071 27.443 7.96901 27.2654 8.56495C26.2521 10.8349 24.9983 12.9897 23.5255 14.9923C23.2256 15.4507 23.1053 15.6895 23.5255 16.2262C23.8025 16.6445 24.7785 17.4601 25.4355 18.2356C26.3904 19.188 27.1833 20.29 27.783 21.4979C28.0218 22.2734 27.6226 22.6707 26.828 22.6707Z"
			fill="white" />
	</symbol>

	<symbol id="ok" xmlns="http://www.w3.org/2000/svg" width="30" height="30" viewBox="0 0 30 30" fill="none">
		<path
			d="M14.7829 2.80566C11.3114 2.80566 8.45703 5.62145 8.45703 9.13155C8.45703 12.6416 11.2728 15.4574 14.7829 15.4574C18.293 15.4574 21.1088 12.6416 21.1088 9.13155C21.1088 5.62145 18.293 2.80566 14.7829 2.80566ZM14.7829 12.2752C13.0279 12.2752 11.62 10.8673 11.62 9.11226C11.62 7.35721 13.0279 5.96861 14.7829 5.96861C16.538 5.96861 17.9459 7.3765 17.9459 9.13155C17.9459 10.8673 16.538 12.2752 14.7829 12.2752Z"
			fill="white" />
		<path
			d="M24.0997 16.402C23.5404 15.3605 22.2289 14.9941 21.1874 15.592C16.8866 18.0028 12.7015 18.0028 8.40067 15.592C7.35921 14.9941 6.04775 15.3798 5.44988 16.4406C4.852 17.4627 5.23773 18.7935 6.29847 19.3528C7.70637 20.1628 9.21069 20.7607 10.7729 21.2043L7.72565 24.2515C6.87706 25.1001 6.87706 26.4501 7.72565 27.2601C8.53567 28.1087 9.88571 28.1087 10.7343 27.2601L14.7844 23.21L18.8345 27.2601C19.6445 28.1087 20.9946 28.1087 21.8432 27.2601C22.6918 26.4116 22.6918 25.0615 21.8432 24.2515L18.7959 21.2043C20.3581 20.7993 21.8625 20.1628 23.2704 19.3528C24.3118 18.7549 24.6975 17.4627 24.0997 16.402C24.0997 16.4406 24.0997 16.4406 24.0997 16.402Z"
			fill="white" />
	</symbol>


	<symbol id="telegram" xmlns="http://www.w3.org/2000/svg" width="30" height="30" viewBox="0 0 30 30" fill="none">
		<path fill-rule="evenodd" clip-rule="evenodd"
			d="M23.2594 24.392L23.2603 24.3899L23.2815 24.3368L26.9444 5.86941V5.80943C26.9444 5.3493 26.7744 4.94761 26.4045 4.70667C26.0806 4.49577 25.7084 4.48075 25.4474 4.50056C25.1713 4.52152 24.911 4.59043 24.7308 4.64779C24.638 4.6773 24.5604 4.70573 24.505 4.72724C24.4771 4.73803 24.4545 4.74719 24.4381 4.75401L24.422 4.7608L3.99938 12.7723L3.99376 12.7743C3.98273 12.7783 3.96814 12.7838 3.95053 12.7906C3.9154 12.8043 3.8676 12.8239 3.81143 12.8493C3.70116 12.8993 3.5488 12.9764 3.39428 13.0822C3.13185 13.2619 2.63213 13.6874 2.71651 14.3619C2.7864 14.9206 3.17153 15.2755 3.43118 15.4592C3.57036 15.5577 3.70352 15.6287 3.80102 15.6751C3.85043 15.6986 3.8924 15.7166 3.92365 15.7294C3.93932 15.7357 3.95242 15.7408 3.96256 15.7447L3.97554 15.7495L3.98383 15.7526L7.5569 16.9555C7.54484 17.1797 7.56708 17.4083 7.62653 17.6338L9.41632 24.4232C9.62853 25.2282 10.3568 25.7889 11.1893 25.7883C11.9355 25.7878 12.5974 25.3364 12.8785 24.6628L15.6728 21.675L20.4719 25.3543L20.5402 25.3841C20.9762 25.5744 21.3835 25.6347 21.756 25.5838C22.1279 25.533 22.4235 25.377 22.6455 25.1994C22.864 25.0246 23.0137 24.8273 23.1079 24.6788C23.1557 24.6034 23.1914 24.5371 23.2161 24.4871C23.2285 24.4621 23.2383 24.4409 23.2457 24.4243L23.2549 24.4031L23.2581 24.3952L23.2594 24.392ZM9.39813 17.1667C9.35746 17.0124 9.42132 16.8495 9.55603 16.764L21.6754 9.06768C21.6754 9.06768 22.3882 8.63492 22.3627 9.06768C22.3627 9.06768 22.49 9.1441 22.108 9.50044C21.7457 9.83887 13.4702 17.8285 12.6328 18.637C12.5845 18.6837 12.5557 18.7372 12.5386 18.8022L11.1879 23.9561L9.39813 17.1667Z"
			fill="white" />
	</symbol>


</svg>